<?xml version="1.0" encoding="UTF-8" standalone="no"?><svg xmlns="http://www.w3.org/2000/svg" xmlns:xlink="http://www.w3.org/1999/xlink" contentScriptType="application/ecmascript" contentStyleType="text/css" height="3210px" preserveAspectRatio="none" style="width:3680px;height:3210px;" version="1.1" viewBox="0 0 3680 3210" width="3680px" zoomAndPan="magnify"><defs/><g><!--MD5=[39f248b4928075f5c2df4a4f1873a967]
cluster concurrent.futures--><polygon fill="#FFFFFF" points="32.5,3099,189.5,3099,196.5,3121.2969,222.5,3121.2969,222.5,3198,32.5,3198,32.5,3099" style="stroke: #000000; stroke-width: 1.5;"/><line style="stroke: #000000; stroke-width: 1.5;" x1="32.5" x2="196.5" y1="3121.2969" y2="3121.2969"/><text fill="#000000" font-family="sans-serif" font-size="14" font-weight="bold" lengthAdjust="spacingAndGlyphs" textLength="151" x="36.5" y="3113.9951">concurrent.futures</text><!--MD5=[a081d989e0cfc9a1e92521a09adcbc70]
cluster gem--><polygon fill="#FFFFFF" points="22,24,62,24,69,46.2969,3658.5,46.2969,3658.5,3075,22,3075,22,24" style="stroke: #000000; stroke-width: 1.5;"/><line style="stroke: #000000; stroke-width: 1.5;" x1="22" x2="69" y1="46.2969" y2="46.2969"/><text fill="#000000" font-family="sans-serif" font-size="14" font-weight="bold" lengthAdjust="spacingAndGlyphs" textLength="34" x="26" y="38.9951">gem</text><!--MD5=[01435ace8273dc3cae88e7f376e4d373]
cluster core--><polygon fill="#FFFFFF" points="1801.5,1777,1843.5,1777,1850.5,1799.2969,2521,1799.2969,2521,1940,1801.5,1940,1801.5,1777" style="stroke: #000000; stroke-width: 1.5;"/><line style="stroke: #000000; stroke-width: 1.5;" x1="1801.5" x2="1850.5" y1="1799.2969" y2="1799.2969"/><text fill="#000000" font-family="sans-serif" font-size="14" font-weight="bold" lengthAdjust="spacingAndGlyphs" textLength="36" x="1805.5" y="1791.9951">core</text><!--MD5=[7501a9d35073a85558b181fa8922dd9a]
cluster vector--><polygon fill="#FFFFFF" points="46,1777,103,1777,110,1799.2969,1076,1799.2969,1076,1966,46,1966,46,1777" style="stroke: #000000; stroke-width: 1.5;"/><line style="stroke: #000000; stroke-width: 1.5;" x1="46" x2="110" y1="1799.2969" y2="1799.2969"/><text fill="#000000" font-family="sans-serif" font-size="14" font-weight="bold" lengthAdjust="spacingAndGlyphs" textLength="51" x="50" y="1791.9951">vector</text><!--MD5=[e0efe6dfcab8d340d4e6e5685648a303]
cluster wrappers--><polygon fill="#FFFFFF" points="1824,2563,1906,2563,1913,2585.2969,2780.5,2585.2969,2780.5,3051,1824,3051,1824,2563" style="stroke: #000000; stroke-width: 1.5;"/><line style="stroke: #000000; stroke-width: 1.5;" x1="1824" x2="1913" y1="2585.2969" y2="2585.2969"/><text fill="#000000" font-family="sans-serif" font-size="14" font-weight="bold" lengthAdjust="spacingAndGlyphs" textLength="76" x="1828" y="2577.9951">wrappers</text><!--MD5=[22afccf079b6b16bd944bfea794d166c]
cluster tools--><polygon fill="#FFFFFF" points="2849.5,2637,2894.5,2637,2901.5,2659.2969,3634.5,2659.2969,3634.5,2932,2849.5,2932,2849.5,2637" style="stroke: #000000; stroke-width: 1.5;"/><line style="stroke: #000000; stroke-width: 1.5;" x1="2849.5" x2="2901.5" y1="2659.2969" y2="2659.2969"/><text fill="#000000" font-family="sans-serif" font-size="14" font-weight="bold" lengthAdjust="spacingAndGlyphs" textLength="39" x="2853.5" y="2651.9951">tools</text><!--MD5=[7bc2ae1b258b67afd215c43cb1783b58]
cluster envs--><polygon fill="#FFFFFF" points="696.5,67,740.5,67,747.5,89.2969,2034.5,89.2969,2034.5,1753,696.5,1753,696.5,67" style="stroke: #000000; stroke-width: 1.5;"/><line style="stroke: #000000; stroke-width: 1.5;" x1="696.5" x2="747.5" y1="89.2969" y2="89.2969"/><text fill="#000000" font-family="sans-serif" font-size="14" font-weight="bold" lengthAdjust="spacingAndGlyphs" textLength="38" x="700.5" y="81.9951">envs</text><!--MD5=[9322a321d528add21309352d801ec739]
cluster game_env--><polygon fill="#FFFFFF" points="899.5,748,984.5,748,991.5,770.2969,1096.5,770.2969,1096.5,1729,899.5,1729,899.5,748" style="stroke: #000000; stroke-width: 1.5;"/><line style="stroke: #000000; stroke-width: 1.5;" x1="899.5" x2="991.5" y1="770.2969" y2="770.2969"/><text fill="#000000" font-family="sans-serif" font-size="14" font-weight="bold" lengthAdjust="spacingAndGlyphs" textLength="79" x="903.5" y="762.9951">game_env</text><!--MD5=[0fe0a87359aca95265cbbdb0e9581458]
cluster multiagent--><polygon fill="#FFFFFF" points="874.5,110,963.5,110,970.5,132.2969,2010.5,132.2969,2010.5,273,874.5,273,874.5,110" style="stroke: #000000; stroke-width: 1.5;"/><line style="stroke: #000000; stroke-width: 1.5;" x1="874.5" x2="970.5" y1="132.2969" y2="132.2969"/><text fill="#000000" font-family="sans-serif" font-size="14" font-weight="bold" lengthAdjust="spacingAndGlyphs" textLength="83" x="878.5" y="124.9951">multiagent</text><!--MD5=[72c66adee8b35dec36e640eaa9de03fd]
cluster single--><polygon fill="#FFFFFF" points="921,429,974,429,981,451.2969,1992.5,451.2969,1992.5,724,921,724,921,429" style="stroke: #000000; stroke-width: 1.5;"/><line style="stroke: #000000; stroke-width: 1.5;" x1="921" x2="981" y1="451.2969" y2="451.2969"/><text fill="#000000" font-family="sans-serif" font-size="14" font-weight="bold" lengthAdjust="spacingAndGlyphs" textLength="47" x="925" y="443.9951">single</text><!--MD5=[c52f45833d539af9e29a9d34b8b7302b]
cluster utils--><polygon fill="#FFFFFF" points="840.5,1990,879.5,1990,886.5,2012.2969,2254.5,2012.2969,2254.5,2539,840.5,2539,840.5,1990" style="stroke: #000000; stroke-width: 1.5;"/><line style="stroke: #000000; stroke-width: 1.5;" x1="840.5" x2="886.5" y1="2012.2969" y2="2012.2969"/><text fill="#000000" font-family="sans-serif" font-size="14" font-weight="bold" lengthAdjust="spacingAndGlyphs" textLength="33" x="844.5" y="2004.9951">utils</text><!--MD5=[77467620f2969a6cddecd3e13a6d5cc6]
class ThreadPoolExecutor--><rect fill="#FEFECE" height="48" id="ThreadPoolExecutor" style="stroke: #A80036; stroke-width: 1.5;" width="158" x="48.5" y="3134"/><ellipse cx="63.5" cy="3150" fill="#ADD1B2" rx="11" ry="11" style="stroke: #A80036; stroke-width: 1.0;"/><path d="M66.4688,3155.6406 Q65.8906,3155.9375 65.25,3156.0781 Q64.6094,3156.2344 63.9063,3156.2344 Q61.4063,3156.2344 60.0781,3154.5938 Q58.7656,3152.9375 58.7656,3149.8125 Q58.7656,3146.6875 60.0781,3145.0313 Q61.4063,3143.375 63.9063,3143.375 Q64.6094,3143.375 65.25,3143.5313 Q65.9063,3143.6875 66.4688,3143.9844 L66.4688,3146.7031 Q65.8438,3146.125 65.25,3145.8594 Q64.6563,3145.5781 64.0313,3145.5781 Q62.6875,3145.5781 62,3146.6563 Q61.3125,3147.7188 61.3125,3149.8125 Q61.3125,3151.9063 62,3152.9844 Q62.6875,3154.0469 64.0313,3154.0469 Q64.6563,3154.0469 65.25,3153.7813 Q65.8438,3153.5 66.4688,3152.9219 L66.4688,3155.6406 Z "/><text fill="#000000" font-family="sans-serif" font-size="12" lengthAdjust="spacingAndGlyphs" textLength="126" x="77.5" y="3154.1543">ThreadPoolExecutor</text><line style="stroke: #A80036; stroke-width: 1.5;" x1="49.5" x2="205.5" y1="3166" y2="3166"/><line style="stroke: #A80036; stroke-width: 1.5;" x1="49.5" x2="205.5" y1="3174" y2="3174"/><!--MD5=[1c83dbccf5d3e47e0260a685829c9639]
class Env--><rect fill="#FEFECE" height="112.0234" id="Env" style="stroke: #A80036; stroke-width: 1.5;" width="233" x="1817.5" y="1812"/><ellipse cx="1918.75" cy="1828" fill="#A9DCDF" rx="11" ry="11" style="stroke: #A80036; stroke-width: 1.0;"/><path d="M1918.8594,1823.3438 L1917.7031,1828.4219 L1920.0313,1828.4219 L1918.8594,1823.3438 Z M1917.375,1821.1094 L1920.3594,1821.1094 L1923.7188,1833.5 L1921.2656,1833.5 L1920.5,1830.4375 L1917.2188,1830.4375 L1916.4688,1833.5 L1914.0313,1833.5 L1917.375,1821.1094 Z "/><text fill="#000000" font-family="sans-serif" font-size="12" font-style="italic" lengthAdjust="spacingAndGlyphs" textLength="22" x="1939.25" y="1832.1543">Env</text><line style="stroke: #A80036; stroke-width: 1.5;" x1="1818.5" x2="2049.5" y1="1844" y2="1844"/><text fill="#000000" font-family="sans-serif" font-size="11" lengthAdjust="spacingAndGlyphs" textLength="104" x="1823.5" y="1858.2104">+unwrapped : Env</text><line style="stroke: #A80036; stroke-width: 1.5;" x1="1818.5" x2="2049.5" y1="1864.8047" y2="1864.8047"/><text fill="#000000" font-family="sans-serif" font-size="11" lengthAdjust="spacingAndGlyphs" textLength="76" x="1823.5" y="1879.0151">+step(action)</text><text fill="#000000" font-family="sans-serif" font-size="11" lengthAdjust="spacingAndGlyphs" textLength="113" x="1823.5" y="1891.8198">+reset(seed=None)</text><text fill="#000000" font-family="sans-serif" font-size="11" lengthAdjust="spacingAndGlyphs" textLength="149" x="1823.5" y="1904.6245">+sample_random_action()</text><text fill="#000000" font-family="sans-serif" font-size="11" lengthAdjust="spacingAndGlyphs" textLength="221" x="1823.5" y="1917.4292">+spawn(same_state=False, **kwargs)</text><!--MD5=[aba6d00507c512904894900c78ca2a47]
class EnvWrapper--><rect fill="#FEFECE" height="86.4141" id="EnvWrapper" style="stroke: #A80036; stroke-width: 1.5;" width="116" x="2389" y="1838"/><ellipse cx="2408.05" cy="1854" fill="#ADD1B2" rx="11" ry="11" style="stroke: #A80036; stroke-width: 1.0;"/><path d="M2411.0188,1859.6406 Q2410.4406,1859.9375 2409.8,1860.0781 Q2409.1594,1860.2344 2408.4563,1860.2344 Q2405.9563,1860.2344 2404.6281,1858.5938 Q2403.3156,1856.9375 2403.3156,1853.8125 Q2403.3156,1850.6875 2404.6281,1849.0313 Q2405.9563,1847.375 2408.4563,1847.375 Q2409.1594,1847.375 2409.8,1847.5313 Q2410.4563,1847.6875 2411.0188,1847.9844 L2411.0188,1850.7031 Q2410.3938,1850.125 2409.8,1849.8594 Q2409.2063,1849.5781 2408.5813,1849.5781 Q2407.2375,1849.5781 2406.55,1850.6563 Q2405.8625,1851.7188 2405.8625,1853.8125 Q2405.8625,1855.9063 2406.55,1856.9844 Q2407.2375,1858.0469 2408.5813,1858.0469 Q2409.2063,1858.0469 2409.8,1857.7813 Q2410.3938,1857.5 2411.0188,1856.9219 L2411.0188,1859.6406 Z "/><text fill="#000000" font-family="sans-serif" font-size="12" lengthAdjust="spacingAndGlyphs" textLength="75" x="2422.95" y="1858.1543">EnvWrapper</text><line style="stroke: #A80036; stroke-width: 1.5;" x1="2390" x2="2504" y1="1870" y2="1870"/><text fill="#000000" font-family="sans-serif" font-size="11" lengthAdjust="spacingAndGlyphs" textLength="52" x="2395" y="1884.2104">-env: Env</text><text fill="#000000" font-family="sans-serif" font-size="11" lengthAdjust="spacingAndGlyphs" textLength="104" x="2395" y="1897.0151">+unwrapped : Env</text><line style="stroke: #A80036; stroke-width: 1.5;" x1="2390" x2="2504" y1="1903.6094" y2="1903.6094"/><text fill="#000000" font-family="sans-serif" font-size="11" lengthAdjust="spacingAndGlyphs" textLength="104" x="2395" y="1917.8198">+EnvWrapper(env)</text><!--MD5=[3d4777da3804c1be0a77d23eabf89baa]
class VectorEnv--><rect fill="#FEFECE" height="137.6328" id="VectorEnv" style="stroke: #A80036; stroke-width: 1.5;" width="186" x="307.5" y="1812"/><ellipse cx="364.75" cy="1828" fill="#ADD1B2" rx="11" ry="11" style="stroke: #A80036; stroke-width: 1.0;"/><path d="M367.7188,1833.6406 Q367.1406,1833.9375 366.5,1834.0781 Q365.8594,1834.2344 365.1563,1834.2344 Q362.6563,1834.2344 361.3281,1832.5938 Q360.0156,1830.9375 360.0156,1827.8125 Q360.0156,1824.6875 361.3281,1823.0313 Q362.6563,1821.375 365.1563,1821.375 Q365.8594,1821.375 366.5,1821.5313 Q367.1563,1821.6875 367.7188,1821.9844 L367.7188,1824.7031 Q367.0938,1824.125 366.5,1823.8594 Q365.9063,1823.5781 365.2813,1823.5781 Q363.9375,1823.5781 363.25,1824.6563 Q362.5625,1825.7188 362.5625,1827.8125 Q362.5625,1829.9063 363.25,1830.9844 Q363.9375,1832.0469 365.2813,1832.0469 Q365.9063,1832.0469 366.5,1831.7813 Q367.0938,1831.5 367.7188,1830.9219 L367.7188,1833.6406 Z "/><text fill="#000000" font-family="sans-serif" font-size="12" lengthAdjust="spacingAndGlyphs" textLength="63" x="385.25" y="1832.1543">VectorEnv</text><line style="stroke: #A80036; stroke-width: 1.5;" x1="308.5" x2="492.5" y1="1844" y2="1844"/><text fill="#000000" font-family="sans-serif" font-size="11" lengthAdjust="spacingAndGlyphs" textLength="47" x="313.5" y="1858.2104">-env_ids</text><text fill="#000000" font-family="sans-serif" font-size="11" lengthAdjust="spacingAndGlyphs" textLength="48" x="313.5" y="1871.0151">-env_fns</text><text fill="#000000" font-family="sans-serif" font-size="11" lengthAdjust="spacingAndGlyphs" textLength="91" x="313.5" y="1883.8198">-envs : List[Env]</text><text fill="#000000" font-family="sans-serif" font-size="11" lengthAdjust="spacingAndGlyphs" textLength="62" x="313.5" y="1896.6245">-num_envs</text><text fill="#000000" font-family="sans-serif" font-size="11" lengthAdjust="spacingAndGlyphs" textLength="97" x="313.5" y="1909.4292">-autoreset_mode</text><line style="stroke: #A80036; stroke-width: 1.5;" x1="308.5" x2="492.5" y1="1916.0234" y2="1916.0234"/><text fill="#000000" font-family="sans-serif" font-size="11" lengthAdjust="spacingAndGlyphs" textLength="174" x="313.5" y="1930.2339">+reset(seed=None, **kwargs)</text><text fill="#000000" font-family="sans-serif" font-size="11" lengthAdjust="spacingAndGlyphs" textLength="54" x="313.5" y="1943.0386">+step(...)</text><!--MD5=[692f4ced7d06c6df5dd5da0b784f3f28]
class SyncVectorEnv--><rect fill="#FEFECE" height="48" id="SyncVectorEnv" style="stroke: #A80036; stroke-width: 1.5;" width="124" x="936" y="1894"/><ellipse cx="951" cy="1910" fill="#ADD1B2" rx="11" ry="11" style="stroke: #A80036; stroke-width: 1.0;"/><path d="M953.9688,1915.6406 Q953.3906,1915.9375 952.75,1916.0781 Q952.1094,1916.2344 951.4063,1916.2344 Q948.9063,1916.2344 947.5781,1914.5938 Q946.2656,1912.9375 946.2656,1909.8125 Q946.2656,1906.6875 947.5781,1905.0313 Q948.9063,1903.375 951.4063,1903.375 Q952.1094,1903.375 952.75,1903.5313 Q953.4063,1903.6875 953.9688,1903.9844 L953.9688,1906.7031 Q953.3438,1906.125 952.75,1905.8594 Q952.1563,1905.5781 951.5313,1905.5781 Q950.1875,1905.5781 949.5,1906.6563 Q948.8125,1907.7188 948.8125,1909.8125 Q948.8125,1911.9063 949.5,1912.9844 Q950.1875,1914.0469 951.5313,1914.0469 Q952.1563,1914.0469 952.75,1913.7813 Q953.3438,1913.5 953.9688,1912.9219 L953.9688,1915.6406 Z "/><text fill="#000000" font-family="sans-serif" font-size="12" lengthAdjust="spacingAndGlyphs" textLength="92" x="965" y="1914.1543">SyncVectorEnv</text><line style="stroke: #A80036; stroke-width: 1.5;" x1="937" x2="1059" y1="1926" y2="1926"/><line style="stroke: #A80036; stroke-width: 1.5;" x1="937" x2="1059" y1="1934" y2="1934"/><!--MD5=[73455dbf8f69ef8a8561eea2d8f5e415]
class AsyncVectorEnv--><rect fill="#FEFECE" height="48" id="AsyncVectorEnv" style="stroke: #A80036; stroke-width: 1.5;" width="131" x="62" y="1880"/><ellipse cx="77" cy="1896" fill="#ADD1B2" rx="11" ry="11" style="stroke: #A80036; stroke-width: 1.0;"/><path d="M79.9688,1901.6406 Q79.3906,1901.9375 78.75,1902.0781 Q78.1094,1902.2344 77.4063,1902.2344 Q74.9063,1902.2344 73.5781,1900.5938 Q72.2656,1898.9375 72.2656,1895.8125 Q72.2656,1892.6875 73.5781,1891.0313 Q74.9063,1889.375 77.4063,1889.375 Q78.1094,1889.375 78.75,1889.5313 Q79.4063,1889.6875 79.9688,1889.9844 L79.9688,1892.7031 Q79.3438,1892.125 78.75,1891.8594 Q78.1563,1891.5781 77.5313,1891.5781 Q76.1875,1891.5781 75.5,1892.6563 Q74.8125,1893.7188 74.8125,1895.8125 Q74.8125,1897.9063 75.5,1898.9844 Q76.1875,1900.0469 77.5313,1900.0469 Q78.1563,1900.0469 78.75,1899.7813 Q79.3438,1899.5 79.9688,1898.9219 L79.9688,1901.6406 Z "/><text fill="#000000" font-family="sans-serif" font-size="12" lengthAdjust="spacingAndGlyphs" textLength="99" x="91" y="1900.1543">AsyncVectorEnv</text><line style="stroke: #A80036; stroke-width: 1.5;" x1="63" x2="192" y1="1912" y2="1912"/><line style="stroke: #A80036; stroke-width: 1.5;" x1="63" x2="192" y1="1920" y2="1920"/><!--MD5=[3e2d367955391f7b170fffa4e0a91031]
class ObservationWrapper--><rect fill="#FEFECE" height="124.8281" id="ObservationWrapper" style="stroke: #A80036; stroke-width: 1.5;" width="186" x="1841" y="2747.5"/><ellipse cx="1867.7" cy="2763.5" fill="#ADD1B2" rx="11" ry="11" style="stroke: #A80036; stroke-width: 1.0;"/><path d="M1870.6688,2769.1406 Q1870.0906,2769.4375 1869.45,2769.5781 Q1868.8094,2769.7344 1868.1063,2769.7344 Q1865.6063,2769.7344 1864.2781,2768.0938 Q1862.9656,2766.4375 1862.9656,2763.3125 Q1862.9656,2760.1875 1864.2781,2758.5313 Q1865.6063,2756.875 1868.1063,2756.875 Q1868.8094,2756.875 1869.45,2757.0313 Q1870.1063,2757.1875 1870.6688,2757.4844 L1870.6688,2760.2031 Q1870.0438,2759.625 1869.45,2759.3594 Q1868.8563,2759.0781 1868.2313,2759.0781 Q1866.8875,2759.0781 1866.2,2760.1563 Q1865.5125,2761.2188 1865.5125,2763.3125 Q1865.5125,2765.4063 1866.2,2766.4844 Q1866.8875,2767.5469 1868.2313,2767.5469 Q1868.8563,2767.5469 1869.45,2767.2813 Q1870.0438,2767 1870.6688,2766.4219 L1870.6688,2769.1406 Z "/><text fill="#000000" font-family="sans-serif" font-size="12" lengthAdjust="spacingAndGlyphs" textLength="128" x="1884.3" y="2767.6543">ObservationWrapper</text><line style="stroke: #A80036; stroke-width: 1.5;" x1="1842" x2="2026" y1="2779.5" y2="2779.5"/><text fill="#000000" font-family="sans-serif" font-size="11" lengthAdjust="spacingAndGlyphs" textLength="66" x="1847" y="2793.7104">-obs_queue</text><text fill="#000000" font-family="sans-serif" font-size="11" lengthAdjust="spacingAndGlyphs" textLength="62" x="1847" y="2806.5151">-act_queue</text><text fill="#000000" font-family="sans-serif" font-size="11" lengthAdjust="spacingAndGlyphs" textLength="55" x="1847" y="2819.3198">-tokenizer</text><line style="stroke: #A80036; stroke-width: 1.5;" x1="1842" x2="2026" y1="2825.9141" y2="2825.9141"/><text fill="#000000" font-family="sans-serif" font-size="11" lengthAdjust="spacingAndGlyphs" textLength="174" x="1847" y="2840.1245">+reset(seed=None, **kwargs)</text><text fill="#000000" font-family="sans-serif" font-size="11" lengthAdjust="spacingAndGlyphs" textLength="76" x="1847" y="2852.9292">+step(action)</text><text fill="#000000" font-family="sans-serif" font-size="11" lengthAdjust="spacingAndGlyphs" textLength="105" x="1847" y="2865.7339">+observation(info)</text><!--MD5=[91f77801a8ffe607f530ceba69a30709]
class EpisodeTrackingWrapper--><rect fill="#FEFECE" height="99.2188" id="EpisodeTrackingWrapper" style="stroke: #A80036; stroke-width: 1.5;" width="188" x="1840" y="2598.5"/><ellipse cx="1855" cy="2614.5" fill="#ADD1B2" rx="11" ry="11" style="stroke: #A80036; stroke-width: 1.0;"/><path d="M1857.9688,2620.1406 Q1857.3906,2620.4375 1856.75,2620.5781 Q1856.1094,2620.7344 1855.4063,2620.7344 Q1852.9063,2620.7344 1851.5781,2619.0938 Q1850.2656,2617.4375 1850.2656,2614.3125 Q1850.2656,2611.1875 1851.5781,2609.5313 Q1852.9063,2607.875 1855.4063,2607.875 Q1856.1094,2607.875 1856.75,2608.0313 Q1857.4063,2608.1875 1857.9688,2608.4844 L1857.9688,2611.2031 Q1857.3438,2610.625 1856.75,2610.3594 Q1856.1563,2610.0781 1855.5313,2610.0781 Q1854.1875,2610.0781 1853.5,2611.1563 Q1852.8125,2612.2188 1852.8125,2614.3125 Q1852.8125,2616.4063 1853.5,2617.4844 Q1854.1875,2618.5469 1855.5313,2618.5469 Q1856.1563,2618.5469 1856.75,2618.2813 Q1857.3438,2618 1857.9688,2617.4219 L1857.9688,2620.1406 Z "/><text fill="#000000" font-family="sans-serif" font-size="12" lengthAdjust="spacingAndGlyphs" textLength="156" x="1869" y="2618.6543">EpisodeTrackingWrapper</text><line style="stroke: #A80036; stroke-width: 1.5;" x1="1841" x2="2027" y1="2630.5" y2="2630.5"/><text fill="#000000" font-family="sans-serif" font-size="11" lengthAdjust="spacingAndGlyphs" textLength="78" x="1846" y="2644.7104">-step_counter</text><text fill="#000000" font-family="sans-serif" font-size="11" lengthAdjust="spacingAndGlyphs" textLength="118" x="1846" y="2657.5151">-cumulative_rewards</text><line style="stroke: #A80036; stroke-width: 1.5;" x1="1841" x2="2027" y1="2664.1094" y2="2664.1094"/><text fill="#000000" font-family="sans-serif" font-size="11" lengthAdjust="spacingAndGlyphs" textLength="76" x="1846" y="2678.3198">+step(action)</text><text fill="#000000" font-family="sans-serif" font-size="11" lengthAdjust="spacingAndGlyphs" textLength="113" x="1846" y="2691.1245">+reset(seed=None)</text><!--MD5=[5b7542d16ccaa1a29709c021083146f0]
class ToolEnvWrapper--><rect fill="#FEFECE" height="112.0234" id="ToolEnvWrapper" style="stroke: #A80036; stroke-width: 1.5;" width="139" x="1864.5" y="2923"/><ellipse cx="1882.2" cy="2939" fill="#ADD1B2" rx="11" ry="11" style="stroke: #A80036; stroke-width: 1.0;"/><path d="M1885.1688,2944.6406 Q1884.5906,2944.9375 1883.95,2945.0781 Q1883.3094,2945.2344 1882.6063,2945.2344 Q1880.1063,2945.2344 1878.7781,2943.5938 Q1877.4656,2941.9375 1877.4656,2938.8125 Q1877.4656,2935.6875 1878.7781,2934.0313 Q1880.1063,2932.375 1882.6063,2932.375 Q1883.3094,2932.375 1883.95,2932.5313 Q1884.6063,2932.6875 1885.1688,2932.9844 L1885.1688,2935.7031 Q1884.5438,2935.125 1883.95,2934.8594 Q1883.3563,2934.5781 1882.7313,2934.5781 Q1881.3875,2934.5781 1880.7,2935.6563 Q1880.0125,2936.7188 1880.0125,2938.8125 Q1880.0125,2940.9063 1880.7,2941.9844 Q1881.3875,2943.0469 1882.7313,2943.0469 Q1883.3563,2943.0469 1883.95,2942.7813 Q1884.5438,2942.5 1885.1688,2941.9219 L1885.1688,2944.6406 Z "/><text fill="#000000" font-family="sans-serif" font-size="12" lengthAdjust="spacingAndGlyphs" textLength="101" x="1896.8" y="2943.1543">ToolEnvWrapper</text><line style="stroke: #A80036; stroke-width: 1.5;" x1="1865.5" x2="2002.5" y1="2955" y2="2955"/><text fill="#000000" font-family="sans-serif" font-size="11" lengthAdjust="spacingAndGlyphs" textLength="121" x="1870.5" y="2969.2104">-tools: List[BaseTool]</text><text fill="#000000" font-family="sans-serif" font-size="11" lengthAdjust="spacingAndGlyphs" textLength="101" x="1870.5" y="2982.0151">-tool_use_counter</text><text fill="#000000" font-family="sans-serif" font-size="11" lengthAdjust="spacingAndGlyphs" textLength="127" x="1870.5" y="2994.8198">-tool_success_counter</text><line style="stroke: #A80036; stroke-width: 1.5;" x1="1865.5" x2="2002.5" y1="3001.4141" y2="3001.4141"/><text fill="#000000" font-family="sans-serif" font-size="11" lengthAdjust="spacingAndGlyphs" textLength="59" x="1870.5" y="3015.6245">+reset(...)</text><text fill="#000000" font-family="sans-serif" font-size="11" lengthAdjust="spacingAndGlyphs" textLength="76" x="1870.5" y="3028.4292">+step(action)</text><!--MD5=[caf4df0b554ec49a7218ccbd3b23f8aa]
class tokenizer module--><rect fill="#FEFECE" height="48" id="tokenizer module" style="stroke: #A80036; stroke-width: 1.5;" width="139" x="2377.5" y="2750"/><ellipse cx="2392.5" cy="2766" fill="#ADD1B2" rx="11" ry="11" style="stroke: #A80036; stroke-width: 1.0;"/><path d="M2395.4688,2771.6406 Q2394.8906,2771.9375 2394.25,2772.0781 Q2393.6094,2772.2344 2392.9063,2772.2344 Q2390.4063,2772.2344 2389.0781,2770.5938 Q2387.7656,2768.9375 2387.7656,2765.8125 Q2387.7656,2762.6875 2389.0781,2761.0313 Q2390.4063,2759.375 2392.9063,2759.375 Q2393.6094,2759.375 2394.25,2759.5313 Q2394.9063,2759.6875 2395.4688,2759.9844 L2395.4688,2762.7031 Q2394.8438,2762.125 2394.25,2761.8594 Q2393.6563,2761.5781 2393.0313,2761.5781 Q2391.6875,2761.5781 2391,2762.6563 Q2390.3125,2763.7188 2390.3125,2765.8125 Q2390.3125,2767.9063 2391,2768.9844 Q2391.6875,2770.0469 2393.0313,2770.0469 Q2393.6563,2770.0469 2394.25,2769.7813 Q2394.8438,2769.5 2395.4688,2768.9219 L2395.4688,2771.6406 Z "/><text fill="#000000" font-family="sans-serif" font-size="12" lengthAdjust="spacingAndGlyphs" textLength="107" x="2406.5" y="2770.1543">tokenizer module</text><line style="stroke: #A80036; stroke-width: 1.5;" x1="2378.5" x2="2515.5" y1="2782" y2="2782"/><line style="stroke: #A80036; stroke-width: 1.5;" x1="2378.5" x2="2515.5" y1="2790" y2="2790"/><!--MD5=[576aa1c46bc04b2f44c422266353803b]
class BaseTool--><rect fill="#FEFECE" height="73.6094" id="BaseTool" style="stroke: #A80036; stroke-width: 1.5;" width="147" x="2617.5" y="2828"/><ellipse cx="2658.6" cy="2844" fill="#ADD1B2" rx="11" ry="11" style="stroke: #A80036; stroke-width: 1.0;"/><path d="M2661.5688,2849.6406 Q2660.9906,2849.9375 2660.35,2850.0781 Q2659.7094,2850.2344 2659.0063,2850.2344 Q2656.5063,2850.2344 2655.1781,2848.5938 Q2653.8656,2846.9375 2653.8656,2843.8125 Q2653.8656,2840.6875 2655.1781,2839.0313 Q2656.5063,2837.375 2659.0063,2837.375 Q2659.7094,2837.375 2660.35,2837.5313 Q2661.0063,2837.6875 2661.5688,2837.9844 L2661.5688,2840.7031 Q2660.9438,2840.125 2660.35,2839.8594 Q2659.7563,2839.5781 2659.1313,2839.5781 Q2657.7875,2839.5781 2657.1,2840.6563 Q2656.4125,2841.7188 2656.4125,2843.8125 Q2656.4125,2845.9063 2657.1,2846.9844 Q2657.7875,2848.0469 2659.1313,2848.0469 Q2659.7563,2848.0469 2660.35,2847.7813 Q2660.9438,2847.5 2661.5688,2846.9219 L2661.5688,2849.6406 Z "/><text fill="#000000" font-family="sans-serif" font-size="12" lengthAdjust="spacingAndGlyphs" textLength="57" x="2678.4" y="2848.1543">BaseTool</text><line style="stroke: #A80036; stroke-width: 1.5;" x1="2618.5" x2="2763.5" y1="2860" y2="2860"/><line style="stroke: #A80036; stroke-width: 1.5;" x1="2618.5" x2="2763.5" y1="2868" y2="2868"/><text fill="#000000" font-family="sans-serif" font-size="11" lengthAdjust="spacingAndGlyphs" textLength="116" x="2623.5" y="2882.2104">+instruction_string()</text><text fill="#000000" font-family="sans-serif" font-size="11" lengthAdjust="spacingAndGlyphs" textLength="135" x="2623.5" y="2895.0151">+execute_action(action)</text><!--MD5=[f03311d4218eb49485e6b0fcc4ddb734]
class PythonCodeTool--><rect fill="#FEFECE" height="48" id="PythonCodeTool" style="stroke: #A80036; stroke-width: 1.5;" width="133" x="2865.5" y="2672"/><ellipse cx="2880.5" cy="2688" fill="#ADD1B2" rx="11" ry="11" style="stroke: #A80036; stroke-width: 1.0;"/><path d="M2883.4688,2693.6406 Q2882.8906,2693.9375 2882.25,2694.0781 Q2881.6094,2694.2344 2880.9063,2694.2344 Q2878.4063,2694.2344 2877.0781,2692.5938 Q2875.7656,2690.9375 2875.7656,2687.8125 Q2875.7656,2684.6875 2877.0781,2683.0313 Q2878.4063,2681.375 2880.9063,2681.375 Q2881.6094,2681.375 2882.25,2681.5313 Q2882.9063,2681.6875 2883.4688,2681.9844 L2883.4688,2684.7031 Q2882.8438,2684.125 2882.25,2683.8594 Q2881.6563,2683.5781 2881.0313,2683.5781 Q2879.6875,2683.5781 2879,2684.6563 Q2878.3125,2685.7188 2878.3125,2687.8125 Q2878.3125,2689.9063 2879,2690.9844 Q2879.6875,2692.0469 2881.0313,2692.0469 Q2881.6563,2692.0469 2882.25,2691.7813 Q2882.8438,2691.5 2883.4688,2690.9219 L2883.4688,2693.6406 Z "/><text fill="#000000" font-family="sans-serif" font-size="12" lengthAdjust="spacingAndGlyphs" textLength="101" x="2894.5" y="2692.1543">PythonCodeTool</text><line style="stroke: #A80036; stroke-width: 1.5;" x1="2866.5" x2="2997.5" y1="2704" y2="2704"/><line style="stroke: #A80036; stroke-width: 1.5;" x1="2866.5" x2="2997.5" y1="2712" y2="2712"/><!--MD5=[dc6156897175d78d39417c1e5659488b]
class Sandbox--><rect fill="#FEFECE" height="86.4141" id="Sandbox" style="stroke: #A80036; stroke-width: 1.5;" width="436" x="3182.5" y="2672"/><ellipse cx="3369.25" cy="2688" fill="#ADD1B2" rx="11" ry="11" style="stroke: #A80036; stroke-width: 1.0;"/><path d="M3372.2188,2693.6406 Q3371.6406,2693.9375 3371,2694.0781 Q3370.3594,2694.2344 3369.6563,2694.2344 Q3367.1563,2694.2344 3365.8281,2692.5938 Q3364.5156,2690.9375 3364.5156,2687.8125 Q3364.5156,2684.6875 3365.8281,2683.0313 Q3367.1563,2681.375 3369.6563,2681.375 Q3370.3594,2681.375 3371,2681.5313 Q3371.6563,2681.6875 3372.2188,2681.9844 L3372.2188,2684.7031 Q3371.5938,2684.125 3371,2683.8594 Q3370.4063,2683.5781 3369.7813,2683.5781 Q3368.4375,2683.5781 3367.75,2684.6563 Q3367.0625,2685.7188 3367.0625,2687.8125 Q3367.0625,2689.9063 3367.75,2690.9844 Q3368.4375,2692.0469 3369.7813,2692.0469 Q3370.4063,2692.0469 3371,2691.7813 Q3371.5938,2691.5 3372.2188,2690.9219 L3372.2188,2693.6406 Z "/><text fill="#000000" font-family="sans-serif" font-size="12" lengthAdjust="spacingAndGlyphs" textLength="54" x="3389.75" y="2692.1543">Sandbox</text><line style="stroke: #A80036; stroke-width: 1.5;" x1="3183.5" x2="3617.5" y1="2704" y2="2704"/><line style="stroke: #A80036; stroke-width: 1.5;" x1="3183.5" x2="3617.5" y1="2712" y2="2712"/><text fill="#000000" font-family="sans-serif" font-size="11" lengthAdjust="spacingAndGlyphs" textLength="340" x="3188.5" y="2726.2104">+run_python(code, Sandbox_type, stdin=None, timeout=...)</text><text fill="#000000" font-family="sans-serif" font-size="11" lengthAdjust="spacingAndGlyphs" textLength="186" x="3188.5" y="2739.0151">+check_forbidden_imports(code)</text><text fill="#000000" font-family="sans-serif" font-size="11" lengthAdjust="spacingAndGlyphs" textLength="424" x="3188.5" y="2751.8198">+subprocess_run(code, cmd_list, Sandbox_type, stdin=None, timeout=...)</text><!--MD5=[5189ed7980201de7f4e94658e3832724]
class SearchTool--><rect fill="#FEFECE" height="48" id="SearchTool" style="stroke: #A80036; stroke-width: 1.5;" width="102" x="2881" y="2770"/><ellipse cx="2896" cy="2786" fill="#ADD1B2" rx="11" ry="11" style="stroke: #A80036; stroke-width: 1.0;"/><path d="M2898.9688,2791.6406 Q2898.3906,2791.9375 2897.75,2792.0781 Q2897.1094,2792.2344 2896.4063,2792.2344 Q2893.9063,2792.2344 2892.5781,2790.5938 Q2891.2656,2788.9375 2891.2656,2785.8125 Q2891.2656,2782.6875 2892.5781,2781.0313 Q2893.9063,2779.375 2896.4063,2779.375 Q2897.1094,2779.375 2897.75,2779.5313 Q2898.4063,2779.6875 2898.9688,2779.9844 L2898.9688,2782.7031 Q2898.3438,2782.125 2897.75,2781.8594 Q2897.1563,2781.5781 2896.5313,2781.5781 Q2895.1875,2781.5781 2894.5,2782.6563 Q2893.8125,2783.7188 2893.8125,2785.8125 Q2893.8125,2787.9063 2894.5,2788.9844 Q2895.1875,2790.0469 2896.5313,2790.0469 Q2897.1563,2790.0469 2897.75,2789.7813 Q2898.3438,2789.5 2898.9688,2788.9219 L2898.9688,2791.6406 Z "/><text fill="#000000" font-family="sans-serif" font-size="12" lengthAdjust="spacingAndGlyphs" textLength="70" x="2910" y="2790.1543">SearchTool</text><line style="stroke: #A80036; stroke-width: 1.5;" x1="2882" x2="2982" y1="2802" y2="2802"/><line style="stroke: #A80036; stroke-width: 1.5;" x1="2882" x2="2982" y1="2810" y2="2810"/><!--MD5=[dcca6df6c507eb5258dba20fd88ba548]
class MCPTool--><rect fill="#FEFECE" height="48" id="MCPTool" style="stroke: #A80036; stroke-width: 1.5;" width="84" x="2890" y="2868"/><ellipse cx="2905" cy="2884" fill="#ADD1B2" rx="11" ry="11" style="stroke: #A80036; stroke-width: 1.0;"/><path d="M2907.9688,2889.6406 Q2907.3906,2889.9375 2906.75,2890.0781 Q2906.1094,2890.2344 2905.4063,2890.2344 Q2902.9063,2890.2344 2901.5781,2888.5938 Q2900.2656,2886.9375 2900.2656,2883.8125 Q2900.2656,2880.6875 2901.5781,2879.0313 Q2902.9063,2877.375 2905.4063,2877.375 Q2906.1094,2877.375 2906.75,2877.5313 Q2907.4063,2877.6875 2907.9688,2877.9844 L2907.9688,2880.7031 Q2907.3438,2880.125 2906.75,2879.8594 Q2906.1563,2879.5781 2905.5313,2879.5781 Q2904.1875,2879.5781 2903.5,2880.6563 Q2902.8125,2881.7188 2902.8125,2883.8125 Q2902.8125,2885.9063 2903.5,2886.9844 Q2904.1875,2888.0469 2905.5313,2888.0469 Q2906.1563,2888.0469 2906.75,2887.7813 Q2907.3438,2887.5 2907.9688,2886.9219 L2907.9688,2889.6406 Z "/><text fill="#000000" font-family="sans-serif" font-size="12" lengthAdjust="spacingAndGlyphs" textLength="52" x="2919" y="2888.1543">MCPTool</text><line style="stroke: #A80036; stroke-width: 1.5;" x1="2891" x2="2973" y1="2900" y2="2900"/><line style="stroke: #A80036; stroke-width: 1.5;" x1="2891" x2="2973" y1="2908" y2="2908"/><!--MD5=[7afe5eec307fe5af4baac54979f204ae]
class requests/remote search--><rect fill="#FEFECE" height="48" id="requests/remote search" style="stroke: #A80036; stroke-width: 1.5;" width="184" x="3308.5" y="2808"/><ellipse cx="3323.5" cy="2824" fill="#ADD1B2" rx="11" ry="11" style="stroke: #A80036; stroke-width: 1.0;"/><path d="M3326.4688,2829.6406 Q3325.8906,2829.9375 3325.25,2830.0781 Q3324.6094,2830.2344 3323.9063,2830.2344 Q3321.4063,2830.2344 3320.0781,2828.5938 Q3318.7656,2826.9375 3318.7656,2823.8125 Q3318.7656,2820.6875 3320.0781,2819.0313 Q3321.4063,2817.375 3323.9063,2817.375 Q3324.6094,2817.375 3325.25,2817.5313 Q3325.9063,2817.6875 3326.4688,2817.9844 L3326.4688,2820.7031 Q3325.8438,2820.125 3325.25,2819.8594 Q3324.6563,2819.5781 3324.0313,2819.5781 Q3322.6875,2819.5781 3322,2820.6563 Q3321.3125,2821.7188 3321.3125,2823.8125 Q3321.3125,2825.9063 3322,2826.9844 Q3322.6875,2828.0469 3324.0313,2828.0469 Q3324.6563,2828.0469 3325.25,2827.7813 Q3325.8438,2827.5 3326.4688,2826.9219 L3326.4688,2829.6406 Z "/><text fill="#000000" font-family="sans-serif" font-size="12" lengthAdjust="spacingAndGlyphs" textLength="152" x="3337.5" y="2828.1543">requests/remote search</text><line style="stroke: #A80036; stroke-width: 1.5;" x1="3309.5" x2="3491.5" y1="2840" y2="2840"/><line style="stroke: #A80036; stroke-width: 1.5;" x1="3309.5" x2="3491.5" y1="2848" y2="2848"/><!--MD5=[aa1e98d9b2e860bd1dcd33a1e368ea99]
class EnvSpec--><rect fill="#FEFECE" height="48" id="EnvSpec" style="stroke: #A80036; stroke-width: 1.5;" width="85" x="1891.5" y="336"/><ellipse cx="1906.5" cy="352" fill="#ADD1B2" rx="11" ry="11" style="stroke: #A80036; stroke-width: 1.0;"/><path d="M1909.4688,357.6406 Q1908.8906,357.9375 1908.25,358.0781 Q1907.6094,358.2344 1906.9063,358.2344 Q1904.4063,358.2344 1903.0781,356.5938 Q1901.7656,354.9375 1901.7656,351.8125 Q1901.7656,348.6875 1903.0781,347.0313 Q1904.4063,345.375 1906.9063,345.375 Q1907.6094,345.375 1908.25,345.5313 Q1908.9063,345.6875 1909.4688,345.9844 L1909.4688,348.7031 Q1908.8438,348.125 1908.25,347.8594 Q1907.6563,347.5781 1907.0313,347.5781 Q1905.6875,347.5781 1905,348.6563 Q1904.3125,349.7188 1904.3125,351.8125 Q1904.3125,353.9063 1905,354.9844 Q1905.6875,356.0469 1907.0313,356.0469 Q1907.6563,356.0469 1908.25,355.7813 Q1908.8438,355.5 1909.4688,354.9219 L1909.4688,357.6406 Z "/><text fill="#000000" font-family="sans-serif" font-size="12" lengthAdjust="spacingAndGlyphs" textLength="53" x="1920.5" y="356.1543">EnvSpec</text><line style="stroke: #A80036; stroke-width: 1.5;" x1="1892.5" x2="1975.5" y1="368" y2="368"/><line style="stroke: #A80036; stroke-width: 1.5;" x1="1892.5" x2="1975.5" y1="376" y2="376"/><!--MD5=[fb994ff9c8bbcdeb24fdbf85dc7ddb44]
class registration--><rect fill="#FEFECE" height="105.1563" id="registration" style="stroke: #A80036; stroke-width: 1.5;" width="571" x="712.5" y="307.5"/><ellipse cx="957.25" cy="326.4688" fill="#ADD1B2" rx="11" ry="11" style="stroke: #A80036; stroke-width: 1.0;"/><path d="M960.2188,332.1094 Q959.6406,332.4063 959,332.5469 Q958.3594,332.7031 957.6563,332.7031 Q955.1563,332.7031 953.8281,331.0625 Q952.5156,329.4063 952.5156,326.2813 Q952.5156,323.1563 953.8281,321.5 Q955.1563,319.8438 957.6563,319.8438 Q958.3594,319.8438 959,320 Q959.6563,320.1563 960.2188,320.4531 L960.2188,323.1719 Q959.5938,322.5938 959,322.3281 Q958.4063,322.0469 957.7813,322.0469 Q956.4375,322.0469 955.75,323.125 Q955.0625,324.1875 955.0625,326.2813 Q955.0625,328.375 955.75,329.4531 Q956.4375,330.5156 957.7813,330.5156 Q958.4063,330.5156 959,330.25 Q959.5938,329.9688 960.2188,329.3906 L960.2188,332.1094 Z "/><text fill="#000000" font-family="sans-serif" font-size="12" font-style="italic" lengthAdjust="spacingAndGlyphs" textLength="60" x="984.25" y="323.6387">«module»</text><text fill="#000000" font-family="sans-serif" font-size="12" lengthAdjust="spacingAndGlyphs" textLength="73" x="977.75" y="337.6074">registration</text><line style="stroke: #A80036; stroke-width: 1.5;" x1="713.5" x2="1282.5" y1="345.4375" y2="345.4375"/><line style="stroke: #A80036; stroke-width: 1.5;" x1="713.5" x2="1282.5" y1="353.4375" y2="353.4375"/><text fill="#000000" font-family="sans-serif" font-size="11" lengthAdjust="spacingAndGlyphs" textLength="230" x="718.5" y="367.6479">+register(env_id, entry_point, **kwargs)</text><text fill="#000000" font-family="sans-serif" font-size="11" lengthAdjust="spacingAndGlyphs" textLength="145" x="718.5" y="380.4526">+make(env_id, **kwargs)</text><text fill="#000000" font-family="sans-serif" font-size="11" lengthAdjust="spacingAndGlyphs" textLength="559" x="718.5" y="393.2573">+make_vec(env_ids, wrappers=None, vec_kwargs=None, async_mode=False, seed=0, **kwargs)</text><text fill="#000000" font-family="sans-serif" font-size="11" lengthAdjust="spacingAndGlyphs" textLength="76" x="718.5" y="406.062">+print_envs()</text><!--MD5=[34db396bdce81a20aca26ea4f33fcba0]
class GuessTheNumberEnv--><rect fill="#FEFECE" height="48" id="GuessTheNumberEnv" style="stroke: #A80036; stroke-width: 1.5;" width="165" x="915.5" y="1469"/><ellipse cx="930.5" cy="1485" fill="#ADD1B2" rx="11" ry="11" style="stroke: #A80036; stroke-width: 1.0;"/><path d="M933.4688,1490.6406 Q932.8906,1490.9375 932.25,1491.0781 Q931.6094,1491.2344 930.9063,1491.2344 Q928.4063,1491.2344 927.0781,1489.5938 Q925.7656,1487.9375 925.7656,1484.8125 Q925.7656,1481.6875 927.0781,1480.0313 Q928.4063,1478.375 930.9063,1478.375 Q931.6094,1478.375 932.25,1478.5313 Q932.9063,1478.6875 933.4688,1478.9844 L933.4688,1481.7031 Q932.8438,1481.125 932.25,1480.8594 Q931.6563,1480.5781 931.0313,1480.5781 Q929.6875,1480.5781 929,1481.6563 Q928.3125,1482.7188 928.3125,1484.8125 Q928.3125,1486.9063 929,1487.9844 Q929.6875,1489.0469 931.0313,1489.0469 Q931.6563,1489.0469 932.25,1488.7813 Q932.8438,1488.5 933.4688,1487.9219 L933.4688,1490.6406 Z "/><text fill="#000000" font-family="sans-serif" font-size="12" lengthAdjust="spacingAndGlyphs" textLength="133" x="944.5" y="1489.1543">GuessTheNumberEnv</text><line style="stroke: #A80036; stroke-width: 1.5;" x1="916.5" x2="1079.5" y1="1501" y2="1501"/><line style="stroke: #A80036; stroke-width: 1.5;" x1="916.5" x2="1079.5" y1="1509" y2="1509"/><!--MD5=[8c71ee9c85970358359cd14651e686d9]
class MastermindEnv--><rect fill="#FEFECE" height="48" id="MastermindEnv" style="stroke: #A80036; stroke-width: 1.5;" width="127" x="934.5" y="1371"/><ellipse cx="949.5" cy="1387" fill="#ADD1B2" rx="11" ry="11" style="stroke: #A80036; stroke-width: 1.0;"/><path d="M952.4688,1392.6406 Q951.8906,1392.9375 951.25,1393.0781 Q950.6094,1393.2344 949.9063,1393.2344 Q947.4063,1393.2344 946.0781,1391.5938 Q944.7656,1389.9375 944.7656,1386.8125 Q944.7656,1383.6875 946.0781,1382.0313 Q947.4063,1380.375 949.9063,1380.375 Q950.6094,1380.375 951.25,1380.5313 Q951.9063,1380.6875 952.4688,1380.9844 L952.4688,1383.7031 Q951.8438,1383.125 951.25,1382.8594 Q950.6563,1382.5781 950.0313,1382.5781 Q948.6875,1382.5781 948,1383.6563 Q947.3125,1384.7188 947.3125,1386.8125 Q947.3125,1388.9063 948,1389.9844 Q948.6875,1391.0469 950.0313,1391.0469 Q950.6563,1391.0469 951.25,1390.7813 Q951.8438,1390.5 952.4688,1389.9219 L952.4688,1392.6406 Z "/><text fill="#000000" font-family="sans-serif" font-size="12" lengthAdjust="spacingAndGlyphs" textLength="95" x="963.5" y="1391.1543">MastermindEnv</text><line style="stroke: #A80036; stroke-width: 1.5;" x1="935.5" x2="1060.5" y1="1403" y2="1403"/><line style="stroke: #A80036; stroke-width: 1.5;" x1="935.5" x2="1060.5" y1="1411" y2="1411"/><!--MD5=[25a4a15d77c9435da11d403078dc06c4]
class MinesweeperEnv--><rect fill="#FEFECE" height="48" id="MinesweeperEnv" style="stroke: #A80036; stroke-width: 1.5;" width="136" x="930" y="1273"/><ellipse cx="945" cy="1289" fill="#ADD1B2" rx="11" ry="11" style="stroke: #A80036; stroke-width: 1.0;"/><path d="M947.9688,1294.6406 Q947.3906,1294.9375 946.75,1295.0781 Q946.1094,1295.2344 945.4063,1295.2344 Q942.9063,1295.2344 941.5781,1293.5938 Q940.2656,1291.9375 940.2656,1288.8125 Q940.2656,1285.6875 941.5781,1284.0313 Q942.9063,1282.375 945.4063,1282.375 Q946.1094,1282.375 946.75,1282.5313 Q947.4063,1282.6875 947.9688,1282.9844 L947.9688,1285.7031 Q947.3438,1285.125 946.75,1284.8594 Q946.1563,1284.5781 945.5313,1284.5781 Q944.1875,1284.5781 943.5,1285.6563 Q942.8125,1286.7188 942.8125,1288.8125 Q942.8125,1290.9063 943.5,1291.9844 Q944.1875,1293.0469 945.5313,1293.0469 Q946.1563,1293.0469 946.75,1292.7813 Q947.3438,1292.5 947.9688,1291.9219 L947.9688,1294.6406 Z "/><text fill="#000000" font-family="sans-serif" font-size="12" lengthAdjust="spacingAndGlyphs" textLength="104" x="959" y="1293.1543">MinesweeperEnv</text><line style="stroke: #A80036; stroke-width: 1.5;" x1="931" x2="1065" y1="1305" y2="1305"/><line style="stroke: #A80036; stroke-width: 1.5;" x1="931" x2="1065" y1="1313" y2="1313"/><!--MD5=[f509010e1204ed75f1fa89b7f6d1890d]
class WordleEnv--><rect fill="#FEFECE" height="48" id="WordleEnv" style="stroke: #A80036; stroke-width: 1.5;" width="97" x="949.5" y="1175"/><ellipse cx="964.5" cy="1191" fill="#ADD1B2" rx="11" ry="11" style="stroke: #A80036; stroke-width: 1.0;"/><path d="M967.4688,1196.6406 Q966.8906,1196.9375 966.25,1197.0781 Q965.6094,1197.2344 964.9063,1197.2344 Q962.4063,1197.2344 961.0781,1195.5938 Q959.7656,1193.9375 959.7656,1190.8125 Q959.7656,1187.6875 961.0781,1186.0313 Q962.4063,1184.375 964.9063,1184.375 Q965.6094,1184.375 966.25,1184.5313 Q966.9063,1184.6875 967.4688,1184.9844 L967.4688,1187.7031 Q966.8438,1187.125 966.25,1186.8594 Q965.6563,1186.5781 965.0313,1186.5781 Q963.6875,1186.5781 963,1187.6563 Q962.3125,1188.7188 962.3125,1190.8125 Q962.3125,1192.9063 963,1193.9844 Q963.6875,1195.0469 965.0313,1195.0469 Q965.6563,1195.0469 966.25,1194.7813 Q966.8438,1194.5 967.4688,1193.9219 L967.4688,1196.6406 Z "/><text fill="#000000" font-family="sans-serif" font-size="12" lengthAdjust="spacingAndGlyphs" textLength="65" x="978.5" y="1195.1543">WordleEnv</text><line style="stroke: #A80036; stroke-width: 1.5;" x1="950.5" x2="1045.5" y1="1207" y2="1207"/><line style="stroke: #A80036; stroke-width: 1.5;" x1="950.5" x2="1045.5" y1="1215" y2="1215"/><!--MD5=[dc9746d7c9c20d09dbdb8853d75b274f]
class SokobanEnv--><rect fill="#FEFECE" height="48" id="SokobanEnv" style="stroke: #A80036; stroke-width: 1.5;" width="109" x="943.5" y="1077"/><ellipse cx="958.5" cy="1093" fill="#ADD1B2" rx="11" ry="11" style="stroke: #A80036; stroke-width: 1.0;"/><path d="M961.4688,1098.6406 Q960.8906,1098.9375 960.25,1099.0781 Q959.6094,1099.2344 958.9063,1099.2344 Q956.4063,1099.2344 955.0781,1097.5938 Q953.7656,1095.9375 953.7656,1092.8125 Q953.7656,1089.6875 955.0781,1088.0313 Q956.4063,1086.375 958.9063,1086.375 Q959.6094,1086.375 960.25,1086.5313 Q960.9063,1086.6875 961.4688,1086.9844 L961.4688,1089.7031 Q960.8438,1089.125 960.25,1088.8594 Q959.6563,1088.5781 959.0313,1088.5781 Q957.6875,1088.5781 957,1089.6563 Q956.3125,1090.7188 956.3125,1092.8125 Q956.3125,1094.9063 957,1095.9844 Q957.6875,1097.0469 959.0313,1097.0469 Q959.6563,1097.0469 960.25,1096.7813 Q960.8438,1096.5 961.4688,1095.9219 L961.4688,1098.6406 Z "/><text fill="#000000" font-family="sans-serif" font-size="12" lengthAdjust="spacingAndGlyphs" textLength="77" x="972.5" y="1097.1543">SokobanEnv</text><line style="stroke: #A80036; stroke-width: 1.5;" x1="944.5" x2="1051.5" y1="1109" y2="1109"/><line style="stroke: #A80036; stroke-width: 1.5;" x1="944.5" x2="1051.5" y1="1117" y2="1117"/><!--MD5=[ef44892cd2cad06c405de44b41733d7d]
class HangmanEnv--><rect fill="#FEFECE" height="48" id="HangmanEnv" style="stroke: #A80036; stroke-width: 1.5;" width="114" x="941" y="979"/><ellipse cx="956" cy="995" fill="#ADD1B2" rx="11" ry="11" style="stroke: #A80036; stroke-width: 1.0;"/><path d="M958.9688,1000.6406 Q958.3906,1000.9375 957.75,1001.0781 Q957.1094,1001.2344 956.4063,1001.2344 Q953.9063,1001.2344 952.5781,999.5938 Q951.2656,997.9375 951.2656,994.8125 Q951.2656,991.6875 952.5781,990.0313 Q953.9063,988.375 956.4063,988.375 Q957.1094,988.375 957.75,988.5313 Q958.4063,988.6875 958.9688,988.9844 L958.9688,991.7031 Q958.3438,991.125 957.75,990.8594 Q957.1563,990.5781 956.5313,990.5781 Q955.1875,990.5781 954.5,991.6563 Q953.8125,992.7188 953.8125,994.8125 Q953.8125,996.9063 954.5,997.9844 Q955.1875,999.0469 956.5313,999.0469 Q957.1563,999.0469 957.75,998.7813 Q958.3438,998.5 958.9688,997.9219 L958.9688,1000.6406 Z "/><text fill="#000000" font-family="sans-serif" font-size="12" lengthAdjust="spacingAndGlyphs" textLength="82" x="970" y="999.1543">HangmanEnv</text><line style="stroke: #A80036; stroke-width: 1.5;" x1="942" x2="1054" y1="1011" y2="1011"/><line style="stroke: #A80036; stroke-width: 1.5;" x1="942" x2="1054" y1="1019" y2="1019"/><!--MD5=[e26ecd627f36f5708409c3df44f4a2c7]
class Game2048Env--><rect fill="#FEFECE" height="48" id="Game2048Env" style="stroke: #A80036; stroke-width: 1.5;" width="122" x="937" y="881"/><ellipse cx="952" cy="897" fill="#ADD1B2" rx="11" ry="11" style="stroke: #A80036; stroke-width: 1.0;"/><path d="M954.9688,902.6406 Q954.3906,902.9375 953.75,903.0781 Q953.1094,903.2344 952.4063,903.2344 Q949.9063,903.2344 948.5781,901.5938 Q947.2656,899.9375 947.2656,896.8125 Q947.2656,893.6875 948.5781,892.0313 Q949.9063,890.375 952.4063,890.375 Q953.1094,890.375 953.75,890.5313 Q954.4063,890.6875 954.9688,890.9844 L954.9688,893.7031 Q954.3438,893.125 953.75,892.8594 Q953.1563,892.5781 952.5313,892.5781 Q951.1875,892.5781 950.5,893.6563 Q949.8125,894.7188 949.8125,896.8125 Q949.8125,898.9063 950.5,899.9844 Q951.1875,901.0469 952.5313,901.0469 Q953.1563,901.0469 953.75,900.7813 Q954.3438,900.5 954.9688,899.9219 L954.9688,902.6406 Z "/><text fill="#000000" font-family="sans-serif" font-size="12" lengthAdjust="spacingAndGlyphs" textLength="90" x="966" y="901.1543">Game2048Env</text><line style="stroke: #A80036; stroke-width: 1.5;" x1="938" x2="1058" y1="913" y2="913"/><line style="stroke: #A80036; stroke-width: 1.5;" x1="938" x2="1058" y1="921" y2="921"/><!--MD5=[2b389b9f32186d64147bc383b8dac5ec]
class TowerofHanoiEnv--><rect fill="#FEFECE" height="48" id="TowerofHanoiEnv" style="stroke: #A80036; stroke-width: 1.5;" width="139" x="928.5" y="783"/><ellipse cx="943.5" cy="799" fill="#ADD1B2" rx="11" ry="11" style="stroke: #A80036; stroke-width: 1.0;"/><path d="M946.4688,804.6406 Q945.8906,804.9375 945.25,805.0781 Q944.6094,805.2344 943.9063,805.2344 Q941.4063,805.2344 940.0781,803.5938 Q938.7656,801.9375 938.7656,798.8125 Q938.7656,795.6875 940.0781,794.0313 Q941.4063,792.375 943.9063,792.375 Q944.6094,792.375 945.25,792.5313 Q945.9063,792.6875 946.4688,792.9844 L946.4688,795.7031 Q945.8438,795.125 945.25,794.8594 Q944.6563,794.5781 944.0313,794.5781 Q942.6875,794.5781 942,795.6563 Q941.3125,796.7188 941.3125,798.8125 Q941.3125,800.9063 942,801.9844 Q942.6875,803.0469 944.0313,803.0469 Q944.6563,803.0469 945.25,802.7813 Q945.8438,802.5 946.4688,801.9219 L946.4688,804.6406 Z "/><text fill="#000000" font-family="sans-serif" font-size="12" lengthAdjust="spacingAndGlyphs" textLength="107" x="957.5" y="803.1543">TowerofHanoiEnv</text><line style="stroke: #A80036; stroke-width: 1.5;" x1="929.5" x2="1066.5" y1="815" y2="815"/><line style="stroke: #A80036; stroke-width: 1.5;" x1="929.5" x2="1066.5" y1="823" y2="823"/><!--MD5=[32d9b3406cef32b577662743f39a3b5f]
class FifteenPuzzleEnv--><rect fill="#FEFECE" height="48" id="FifteenPuzzleEnv" style="stroke: #A80036; stroke-width: 1.5;" width="134" x="931" y="1665"/><ellipse cx="946" cy="1681" fill="#ADD1B2" rx="11" ry="11" style="stroke: #A80036; stroke-width: 1.0;"/><path d="M948.9688,1686.6406 Q948.3906,1686.9375 947.75,1687.0781 Q947.1094,1687.2344 946.4063,1687.2344 Q943.9063,1687.2344 942.5781,1685.5938 Q941.2656,1683.9375 941.2656,1680.8125 Q941.2656,1677.6875 942.5781,1676.0313 Q943.9063,1674.375 946.4063,1674.375 Q947.1094,1674.375 947.75,1674.5313 Q948.4063,1674.6875 948.9688,1674.9844 L948.9688,1677.7031 Q948.3438,1677.125 947.75,1676.8594 Q947.1563,1676.5781 946.5313,1676.5781 Q945.1875,1676.5781 944.5,1677.6563 Q943.8125,1678.7188 943.8125,1680.8125 Q943.8125,1682.9063 944.5,1683.9844 Q945.1875,1685.0469 946.5313,1685.0469 Q947.1563,1685.0469 947.75,1684.7813 Q948.3438,1684.5 948.9688,1683.9219 L948.9688,1686.6406 Z "/><text fill="#000000" font-family="sans-serif" font-size="12" lengthAdjust="spacingAndGlyphs" textLength="102" x="960" y="1685.1543">FifteenPuzzleEnv</text><line style="stroke: #A80036; stroke-width: 1.5;" x1="932" x2="1064" y1="1697" y2="1697"/><line style="stroke: #A80036; stroke-width: 1.5;" x1="932" x2="1064" y1="1705" y2="1705"/><!--MD5=[419b0769b46ef5ecc63b9b5336017b92]
class CrosswordsEnv--><rect fill="#FEFECE" height="48" id="CrosswordsEnv" style="stroke: #A80036; stroke-width: 1.5;" width="126" x="935" y="1567"/><ellipse cx="950" cy="1583" fill="#ADD1B2" rx="11" ry="11" style="stroke: #A80036; stroke-width: 1.0;"/><path d="M952.9688,1588.6406 Q952.3906,1588.9375 951.75,1589.0781 Q951.1094,1589.2344 950.4063,1589.2344 Q947.9063,1589.2344 946.5781,1587.5938 Q945.2656,1585.9375 945.2656,1582.8125 Q945.2656,1579.6875 946.5781,1578.0313 Q947.9063,1576.375 950.4063,1576.375 Q951.1094,1576.375 951.75,1576.5313 Q952.4063,1576.6875 952.9688,1576.9844 L952.9688,1579.7031 Q952.3438,1579.125 951.75,1578.8594 Q951.1563,1578.5781 950.5313,1578.5781 Q949.1875,1578.5781 948.5,1579.6563 Q947.8125,1580.7188 947.8125,1582.8125 Q947.8125,1584.9063 948.5,1585.9844 Q949.1875,1587.0469 950.5313,1587.0469 Q951.1563,1587.0469 951.75,1586.7813 Q952.3438,1586.5 952.9688,1585.9219 L952.9688,1588.6406 Z "/><text fill="#000000" font-family="sans-serif" font-size="12" lengthAdjust="spacingAndGlyphs" textLength="94" x="964" y="1587.1543">CrosswordsEnv</text><line style="stroke: #A80036; stroke-width: 1.5;" x1="936" x2="1060" y1="1599" y2="1599"/><line style="stroke: #A80036; stroke-width: 1.5;" x1="936" x2="1060" y1="1607" y2="1607"/><!--MD5=[be72710248d96f2f57cb390f17ba21f3]
class MultiAgentEnv--><rect fill="#FEFECE" height="112.0234" id="MultiAgentEnv" style="stroke: #A80036; stroke-width: 1.5;" width="215" x="890.5" y="145"/><ellipse cx="949.75" cy="161" fill="#ADD1B2" rx="11" ry="11" style="stroke: #A80036; stroke-width: 1.0;"/><path d="M952.7188,166.6406 Q952.1406,166.9375 951.5,167.0781 Q950.8594,167.2344 950.1563,167.2344 Q947.6563,167.2344 946.3281,165.5938 Q945.0156,163.9375 945.0156,160.8125 Q945.0156,157.6875 946.3281,156.0313 Q947.6563,154.375 950.1563,154.375 Q950.8594,154.375 951.5,154.5313 Q952.1563,154.6875 952.7188,154.9844 L952.7188,157.7031 Q952.0938,157.125 951.5,156.8594 Q950.9063,156.5781 950.2813,156.5781 Q948.9375,156.5781 948.25,157.6563 Q947.5625,158.7188 947.5625,160.8125 Q947.5625,162.9063 948.25,163.9844 Q948.9375,165.0469 950.2813,165.0469 Q950.9063,165.0469 951.5,164.7813 Q952.0938,164.5 952.7188,163.9219 L952.7188,166.6406 Z "/><text fill="#000000" font-family="sans-serif" font-size="12" lengthAdjust="spacingAndGlyphs" textLength="88" x="970.25" y="165.1543">MultiAgentEnv</text><line style="stroke: #A80036; stroke-width: 1.5;" x1="891.5" x2="1104.5" y1="177" y2="177"/><text fill="#000000" font-family="sans-serif" font-size="11" lengthAdjust="spacingAndGlyphs" textLength="43" x="896.5" y="191.2104">-agents</text><text fill="#000000" font-family="sans-serif" font-size="11" lengthAdjust="spacingAndGlyphs" textLength="97" x="896.5" y="204.0151">-possible_agents</text><text fill="#000000" font-family="sans-serif" font-size="11" lengthAdjust="spacingAndGlyphs" textLength="203" x="896.5" y="216.8198">-rewards, terminations, truncations</text><line style="stroke: #A80036; stroke-width: 1.5;" x1="891.5" x2="1104.5" y1="223.4141" y2="223.4141"/><text fill="#000000" font-family="sans-serif" font-size="11" lengthAdjust="spacingAndGlyphs" textLength="83" x="896.5" y="237.6245">+step(actions)</text><text fill="#000000" font-family="sans-serif" font-size="11" lengthAdjust="spacingAndGlyphs" textLength="113" x="896.5" y="250.4292">+reset(seed=None)</text><!--MD5=[a411db113250f0eecf1a44e06e51944c]
class AgentSelector--><rect fill="#FEFECE" height="48" id="AgentSelector" style="stroke: #A80036; stroke-width: 1.5;" width="121" x="1873.5" y="177"/><ellipse cx="1888.5" cy="193" fill="#ADD1B2" rx="11" ry="11" style="stroke: #A80036; stroke-width: 1.0;"/><path d="M1891.4688,198.6406 Q1890.8906,198.9375 1890.25,199.0781 Q1889.6094,199.2344 1888.9063,199.2344 Q1886.4063,199.2344 1885.0781,197.5938 Q1883.7656,195.9375 1883.7656,192.8125 Q1883.7656,189.6875 1885.0781,188.0313 Q1886.4063,186.375 1888.9063,186.375 Q1889.6094,186.375 1890.25,186.5313 Q1890.9063,186.6875 1891.4688,186.9844 L1891.4688,189.7031 Q1890.8438,189.125 1890.25,188.8594 Q1889.6563,188.5781 1889.0313,188.5781 Q1887.6875,188.5781 1887,189.6563 Q1886.3125,190.7188 1886.3125,192.8125 Q1886.3125,194.9063 1887,195.9844 Q1887.6875,197.0469 1889.0313,197.0469 Q1889.6563,197.0469 1890.25,196.7813 Q1890.8438,196.5 1891.4688,195.9219 L1891.4688,198.6406 Z "/><text fill="#000000" font-family="sans-serif" font-size="12" lengthAdjust="spacingAndGlyphs" textLength="89" x="1902.5" y="197.1543">AgentSelector</text><line style="stroke: #A80036; stroke-width: 1.5;" x1="1874.5" x2="1993.5" y1="209" y2="209"/><line style="stroke: #A80036; stroke-width: 1.5;" x1="1874.5" x2="1993.5" y1="217" y2="217"/><!--MD5=[b83a6d87e661a371bd2c8a7402399824]
class QaEnv--><rect fill="#FEFECE" height="48" id="QaEnv" style="stroke: #A80036; stroke-width: 1.5;" width="71" x="962.5" y="660"/><ellipse cx="977.5" cy="676" fill="#ADD1B2" rx="11" ry="11" style="stroke: #A80036; stroke-width: 1.0;"/><path d="M980.4688,681.6406 Q979.8906,681.9375 979.25,682.0781 Q978.6094,682.2344 977.9063,682.2344 Q975.4063,682.2344 974.0781,680.5938 Q972.7656,678.9375 972.7656,675.8125 Q972.7656,672.6875 974.0781,671.0313 Q975.4063,669.375 977.9063,669.375 Q978.6094,669.375 979.25,669.5313 Q979.9063,669.6875 980.4688,669.9844 L980.4688,672.7031 Q979.8438,672.125 979.25,671.8594 Q978.6563,671.5781 978.0313,671.5781 Q976.6875,671.5781 976,672.6563 Q975.3125,673.7188 975.3125,675.8125 Q975.3125,677.9063 976,678.9844 Q976.6875,680.0469 978.0313,680.0469 Q978.6563,680.0469 979.25,679.7813 Q979.8438,679.5 980.4688,678.9219 L980.4688,681.6406 Z "/><text fill="#000000" font-family="sans-serif" font-size="12" lengthAdjust="spacingAndGlyphs" textLength="39" x="991.5" y="680.1543">QaEnv</text><line style="stroke: #A80036; stroke-width: 1.5;" x1="963.5" x2="1032.5" y1="692" y2="692"/><line style="stroke: #A80036; stroke-width: 1.5;" x1="963.5" x2="1032.5" y1="700" y2="700"/><!--MD5=[2793792339a160328b2376562ed8ca5c]
class MathEnv--><rect fill="#FEFECE" height="48" id="MathEnv" style="stroke: #A80036; stroke-width: 1.5;" width="85" x="1891.5" y="562"/><ellipse cx="1906.5" cy="578" fill="#ADD1B2" rx="11" ry="11" style="stroke: #A80036; stroke-width: 1.0;"/><path d="M1909.4688,583.6406 Q1908.8906,583.9375 1908.25,584.0781 Q1907.6094,584.2344 1906.9063,584.2344 Q1904.4063,584.2344 1903.0781,582.5938 Q1901.7656,580.9375 1901.7656,577.8125 Q1901.7656,574.6875 1903.0781,573.0313 Q1904.4063,571.375 1906.9063,571.375 Q1907.6094,571.375 1908.25,571.5313 Q1908.9063,571.6875 1909.4688,571.9844 L1909.4688,574.7031 Q1908.8438,574.125 1908.25,573.8594 Q1907.6563,573.5781 1907.0313,573.5781 Q1905.6875,573.5781 1905,574.6563 Q1904.3125,575.7188 1904.3125,577.8125 Q1904.3125,579.9063 1905,580.9844 Q1905.6875,582.0469 1907.0313,582.0469 Q1907.6563,582.0469 1908.25,581.7813 Q1908.8438,581.5 1909.4688,580.9219 L1909.4688,583.6406 Z "/><text fill="#000000" font-family="sans-serif" font-size="12" lengthAdjust="spacingAndGlyphs" textLength="53" x="1920.5" y="582.1543">MathEnv</text><line style="stroke: #A80036; stroke-width: 1.5;" x1="1892.5" x2="1975.5" y1="594" y2="594"/><line style="stroke: #A80036; stroke-width: 1.5;" x1="1892.5" x2="1975.5" y1="602" y2="602"/><!--MD5=[4e5dfd3e4102d87fa06fd0e0e5223bd4]
class CodeEnv--><rect fill="#FEFECE" height="48" id="CodeEnv" style="stroke: #A80036; stroke-width: 1.5;" width="86" x="955" y="562"/><ellipse cx="970" cy="578" fill="#ADD1B2" rx="11" ry="11" style="stroke: #A80036; stroke-width: 1.0;"/><path d="M972.9688,583.6406 Q972.3906,583.9375 971.75,584.0781 Q971.1094,584.2344 970.4063,584.2344 Q967.9063,584.2344 966.5781,582.5938 Q965.2656,580.9375 965.2656,577.8125 Q965.2656,574.6875 966.5781,573.0313 Q967.9063,571.375 970.4063,571.375 Q971.1094,571.375 971.75,571.5313 Q972.4063,571.6875 972.9688,571.9844 L972.9688,574.7031 Q972.3438,574.125 971.75,573.8594 Q971.1563,573.5781 970.5313,573.5781 Q969.1875,573.5781 968.5,574.6563 Q967.8125,575.7188 967.8125,577.8125 Q967.8125,579.9063 968.5,580.9844 Q969.1875,582.0469 970.5313,582.0469 Q971.1563,582.0469 971.75,581.7813 Q972.3438,581.5 972.9688,580.9219 L972.9688,583.6406 Z "/><text fill="#000000" font-family="sans-serif" font-size="12" lengthAdjust="spacingAndGlyphs" textLength="54" x="984" y="582.1543">CodeEnv</text><line style="stroke: #A80036; stroke-width: 1.5;" x1="956" x2="1040" y1="594" y2="594"/><line style="stroke: #A80036; stroke-width: 1.5;" x1="956" x2="1040" y1="602" y2="602"/><!--MD5=[9384c250daa018542e99cb05031d0a5e]
class MathVisualEnv--><rect fill="#FEFECE" height="48" id="MathVisualEnv" style="stroke: #A80036; stroke-width: 1.5;" width="122" x="937" y="464"/><ellipse cx="952" cy="480" fill="#ADD1B2" rx="11" ry="11" style="stroke: #A80036; stroke-width: 1.0;"/><path d="M954.9688,485.6406 Q954.3906,485.9375 953.75,486.0781 Q953.1094,486.2344 952.4063,486.2344 Q949.9063,486.2344 948.5781,484.5938 Q947.2656,482.9375 947.2656,479.8125 Q947.2656,476.6875 948.5781,475.0313 Q949.9063,473.375 952.4063,473.375 Q953.1094,473.375 953.75,473.5313 Q954.4063,473.6875 954.9688,473.9844 L954.9688,476.7031 Q954.3438,476.125 953.75,475.8594 Q953.1563,475.5781 952.5313,475.5781 Q951.1875,475.5781 950.5,476.6563 Q949.8125,477.7188 949.8125,479.8125 Q949.8125,481.9063 950.5,482.9844 Q951.1875,484.0469 952.5313,484.0469 Q953.1563,484.0469 953.75,483.7813 Q954.3438,483.5 954.9688,482.9219 L954.9688,485.6406 Z "/><text fill="#000000" font-family="sans-serif" font-size="12" lengthAdjust="spacingAndGlyphs" textLength="90" x="966" y="484.1543">MathVisualEnv</text><line style="stroke: #A80036; stroke-width: 1.5;" x1="938" x2="1058" y1="496" y2="496"/><line style="stroke: #A80036; stroke-width: 1.5;" x1="938" x2="1058" y1="504" y2="504"/><!--MD5=[2ca930983e6bc1a21af69c02ec8525bb]
class wrapper_factory--><rect fill="#FEFECE" height="60.8047" id="wrapper_factory" style="stroke: #A80036; stroke-width: 1.5;" width="275" x="860.5" y="2461.5"/><ellipse cx="943.75" cy="2477.5" fill="#ADD1B2" rx="11" ry="11" style="stroke: #A80036; stroke-width: 1.0;"/><path d="M946.7188,2483.1406 Q946.1406,2483.4375 945.5,2483.5781 Q944.8594,2483.7344 944.1563,2483.7344 Q941.6563,2483.7344 940.3281,2482.0938 Q939.0156,2480.4375 939.0156,2477.3125 Q939.0156,2474.1875 940.3281,2472.5313 Q941.6563,2470.875 944.1563,2470.875 Q944.8594,2470.875 945.5,2471.0313 Q946.1563,2471.1875 946.7188,2471.4844 L946.7188,2474.2031 Q946.0938,2473.625 945.5,2473.3594 Q944.9063,2473.0781 944.2813,2473.0781 Q942.9375,2473.0781 942.25,2474.1563 Q941.5625,2475.2188 941.5625,2477.3125 Q941.5625,2479.4063 942.25,2480.4844 Q942.9375,2481.5469 944.2813,2481.5469 Q944.9063,2481.5469 945.5,2481.2813 Q946.0938,2481 946.7188,2480.4219 L946.7188,2483.1406 Z "/><text fill="#000000" font-family="sans-serif" font-size="12" lengthAdjust="spacingAndGlyphs" textLength="100" x="964.25" y="2481.6543">wrapper_factory</text><line style="stroke: #A80036; stroke-width: 1.5;" x1="861.5" x2="1134.5" y1="2493.5" y2="2493.5"/><line style="stroke: #A80036; stroke-width: 1.5;" x1="861.5" x2="1134.5" y1="2501.5" y2="2501.5"/><text fill="#000000" font-family="sans-serif" font-size="11" lengthAdjust="spacingAndGlyphs" textLength="263" x="866.5" y="2515.7104">+get_wrapper_fns(wrappers, tokenizer=None)</text><!--MD5=[93712dbdc812aea4b1e9fd3f7fb14ed4]
class seeding--><rect fill="#FEFECE" height="73.6094" id="seeding" style="stroke: #A80036; stroke-width: 1.5;" width="121" x="937.5" y="2337"/><ellipse cx="970.05" cy="2353" fill="#ADD1B2" rx="11" ry="11" style="stroke: #A80036; stroke-width: 1.0;"/><path d="M973.0188,2358.6406 Q972.4406,2358.9375 971.8,2359.0781 Q971.1594,2359.2344 970.4563,2359.2344 Q967.9563,2359.2344 966.6281,2357.5938 Q965.3156,2355.9375 965.3156,2352.8125 Q965.3156,2349.6875 966.6281,2348.0313 Q967.9563,2346.375 970.4563,2346.375 Q971.1594,2346.375 971.8,2346.5313 Q972.4563,2346.6875 973.0188,2346.9844 L973.0188,2349.7031 Q972.3938,2349.125 971.8,2348.8594 Q971.2063,2348.5781 970.5813,2348.5781 Q969.2375,2348.5781 968.55,2349.6563 Q967.8625,2350.7188 967.8625,2352.8125 Q967.8625,2354.9063 968.55,2355.9844 Q969.2375,2357.0469 970.5813,2357.0469 Q971.2063,2357.0469 971.8,2356.7813 Q972.3938,2356.5 973.0188,2355.9219 L973.0188,2358.6406 Z "/><text fill="#000000" font-family="sans-serif" font-size="12" lengthAdjust="spacingAndGlyphs" textLength="50" x="987.95" y="2357.1543">seeding</text><line style="stroke: #A80036; stroke-width: 1.5;" x1="938.5" x2="1057.5" y1="2369" y2="2369"/><line style="stroke: #A80036; stroke-width: 1.5;" x1="938.5" x2="1057.5" y1="2377" y2="2377"/><text fill="#000000" font-family="sans-serif" font-size="11" lengthAdjust="spacingAndGlyphs" textLength="97" x="943.5" y="2391.2104">+set_seed(seed)</text><text fill="#000000" font-family="sans-serif" font-size="11" lengthAdjust="spacingAndGlyphs" textLength="109" x="943.5" y="2404.0151">+np_random(seed)</text><!--MD5=[3a06755c3dfac87ead78df8d477775dd]
class constants--><rect fill="#FEFECE" height="73.6094" id="constants" style="stroke: #A80036; stroke-width: 1.5;" width="152" x="922" y="2213"/><ellipse cx="962.65" cy="2229" fill="#ADD1B2" rx="11" ry="11" style="stroke: #A80036; stroke-width: 1.0;"/><path d="M965.6188,2234.6406 Q965.0406,2234.9375 964.4,2235.0781 Q963.7594,2235.2344 963.0563,2235.2344 Q960.5563,2235.2344 959.2281,2233.5938 Q957.9156,2231.9375 957.9156,2228.8125 Q957.9156,2225.6875 959.2281,2224.0313 Q960.5563,2222.375 963.0563,2222.375 Q963.7594,2222.375 964.4,2222.5313 Q965.0563,2222.6875 965.6188,2222.9844 L965.6188,2225.7031 Q964.9938,2225.125 964.4,2224.8594 Q963.8063,2224.5781 963.1813,2224.5781 Q961.8375,2224.5781 961.15,2225.6563 Q960.4625,2226.7188 960.4625,2228.8125 Q960.4625,2230.9063 961.15,2231.9844 Q961.8375,2233.0469 963.1813,2233.0469 Q963.8063,2233.0469 964.4,2232.7813 Q964.9938,2232.5 965.6188,2231.9219 L965.6188,2234.6406 Z "/><text fill="#000000" font-family="sans-serif" font-size="12" lengthAdjust="spacingAndGlyphs" textLength="63" x="982.35" y="2233.1543">constants</text><line style="stroke: #A80036; stroke-width: 1.5;" x1="923" x2="1073" y1="2245" y2="2245"/><text fill="#000000" font-family="sans-serif" font-size="11" lengthAdjust="spacingAndGlyphs" textLength="105" x="928" y="2259.2104">+TERMINAL_STATE</text><text fill="#000000" font-family="sans-serif" font-size="11" lengthAdjust="spacingAndGlyphs" textLength="140" x="928" y="2272.0151">+LanguageGameReward</text><line style="stroke: #A80036; stroke-width: 1.5;" x1="923" x2="1073" y1="2278.6094" y2="2278.6094"/><!--MD5=[cd7f000d96afcbf3ae9d8a5a095ccb7b]
class parsing--><rect fill="#FEFECE" height="137.6328" id="parsing" style="stroke: #A80036; stroke-width: 1.5;" width="283" x="856.5" y="2025"/><ellipse cx="970.25" cy="2041" fill="#ADD1B2" rx="11" ry="11" style="stroke: #A80036; stroke-width: 1.0;"/><path d="M973.2188,2046.6406 Q972.6406,2046.9375 972,2047.0781 Q971.3594,2047.2344 970.6563,2047.2344 Q968.1563,2047.2344 966.8281,2045.5938 Q965.5156,2043.9375 965.5156,2040.8125 Q965.5156,2037.6875 966.8281,2036.0313 Q968.1563,2034.375 970.6563,2034.375 Q971.3594,2034.375 972,2034.5313 Q972.6563,2034.6875 973.2188,2034.9844 L973.2188,2037.7031 Q972.5938,2037.125 972,2036.8594 Q971.4063,2036.5781 970.7813,2036.5781 Q969.4375,2036.5781 968.75,2037.6563 Q968.0625,2038.7188 968.0625,2040.8125 Q968.0625,2042.9063 968.75,2043.9844 Q969.4375,2045.0469 970.7813,2045.0469 Q971.4063,2045.0469 972,2044.7813 Q972.5938,2044.5 973.2188,2043.9219 L973.2188,2046.6406 Z "/><text fill="#000000" font-family="sans-serif" font-size="12" lengthAdjust="spacingAndGlyphs" textLength="47" x="990.75" y="2045.1543">parsing</text><line style="stroke: #A80036; stroke-width: 1.5;" x1="857.5" x2="1138.5" y1="2057" y2="2057"/><line style="stroke: #A80036; stroke-width: 1.5;" x1="857.5" x2="1138.5" y1="2065" y2="2065"/><text fill="#000000" font-family="sans-serif" font-size="11" lengthAdjust="spacingAndGlyphs" textLength="179" x="862.5" y="2079.2104">+last_boxed_only_string(string)</text><text fill="#000000" font-family="sans-serif" font-size="11" lengthAdjust="spacingAndGlyphs" textLength="107" x="862.5" y="2092.0151">+remove_boxed(s)</text><text fill="#000000" font-family="sans-serif" font-size="11" lengthAdjust="spacingAndGlyphs" textLength="216" x="862.5" y="2104.8198">+extract_last_boxed_answer(solution)</text><text fill="#000000" font-family="sans-serif" font-size="11" lengthAdjust="spacingAndGlyphs" textLength="258" x="862.5" y="2117.6245">+extract_code_from_model(model_response)</text><text fill="#000000" font-family="sans-serif" font-size="11" lengthAdjust="spacingAndGlyphs" textLength="271" x="862.5" y="2130.4292">+extract_last_tagged_answer(model_response)</text><text fill="#000000" font-family="sans-serif" font-size="11" lengthAdjust="spacingAndGlyphs" textLength="178" x="862.5" y="2143.2339">+extract_last_boxed_answer(s)</text><text fill="#000000" font-family="sans-serif" font-size="11" lengthAdjust="spacingAndGlyphs" textLength="170" x="862.5" y="2156.0386">+extract_code_from_model(s)</text><!--MD5=[4d8194c4e19bbd4fb794eae562a3897c]
class qa_em--><rect fill="#FEFECE" height="73.6094" id="qa_em" style="stroke: #A80036; stroke-width: 1.5;" width="242" x="1813" y="2337"/><ellipse cx="1909.25" cy="2353" fill="#ADD1B2" rx="11" ry="11" style="stroke: #A80036; stroke-width: 1.0;"/><path d="M1912.2188,2358.6406 Q1911.6406,2358.9375 1911,2359.0781 Q1910.3594,2359.2344 1909.6563,2359.2344 Q1907.1563,2359.2344 1905.8281,2357.5938 Q1904.5156,2355.9375 1904.5156,2352.8125 Q1904.5156,2349.6875 1905.8281,2348.0313 Q1907.1563,2346.375 1909.6563,2346.375 Q1910.3594,2346.375 1911,2346.5313 Q1911.6563,2346.6875 1912.2188,2346.9844 L1912.2188,2349.7031 Q1911.5938,2349.125 1911,2348.8594 Q1910.4063,2348.5781 1909.7813,2348.5781 Q1908.4375,2348.5781 1907.75,2349.6563 Q1907.0625,2350.7188 1907.0625,2352.8125 Q1907.0625,2354.9063 1907.75,2355.9844 Q1908.4375,2357.0469 1909.7813,2357.0469 Q1910.4063,2357.0469 1911,2356.7813 Q1911.5938,2356.5 1912.2188,2355.9219 L1912.2188,2358.6406 Z "/><text fill="#000000" font-family="sans-serif" font-size="12" lengthAdjust="spacingAndGlyphs" textLength="41" x="1929.75" y="2357.1543">qa_em</text><line style="stroke: #A80036; stroke-width: 1.5;" x1="1814" x2="2054" y1="2369" y2="2369"/><line style="stroke: #A80036; stroke-width: 1.5;" x1="1814" x2="2054" y1="2377" y2="2377"/><text fill="#000000" font-family="sans-serif" font-size="11" lengthAdjust="spacingAndGlyphs" textLength="127" x="1819" y="2391.2104">+normalize_answer(s)</text><text fill="#000000" font-family="sans-serif" font-size="11" lengthAdjust="spacingAndGlyphs" textLength="230" x="1819" y="2404.0151">+em_check(prediction, golden_answers)</text><!--MD5=[e44588353c60b105a3af923cc0c678aa]
class math_grader--><rect fill="#FEFECE" height="99.2188" id="math_grader" style="stroke: #A80036; stroke-width: 1.5;" width="609" x="1629.5" y="2187.5"/><ellipse cx="1889.75" cy="2203.5" fill="#ADD1B2" rx="11" ry="11" style="stroke: #A80036; stroke-width: 1.0;"/><path d="M1892.7188,2209.1406 Q1892.1406,2209.4375 1891.5,2209.5781 Q1890.8594,2209.7344 1890.1563,2209.7344 Q1887.6563,2209.7344 1886.3281,2208.0938 Q1885.0156,2206.4375 1885.0156,2203.3125 Q1885.0156,2200.1875 1886.3281,2198.5313 Q1887.6563,2196.875 1890.1563,2196.875 Q1890.8594,2196.875 1891.5,2197.0313 Q1892.1563,2197.1875 1892.7188,2197.4844 L1892.7188,2200.2031 Q1892.0938,2199.625 1891.5,2199.3594 Q1890.9063,2199.0781 1890.2813,2199.0781 Q1888.9375,2199.0781 1888.25,2200.1563 Q1887.5625,2201.2188 1887.5625,2203.3125 Q1887.5625,2205.4063 1888.25,2206.4844 Q1888.9375,2207.5469 1890.2813,2207.5469 Q1890.9063,2207.5469 1891.5,2207.2813 Q1892.0938,2207 1892.7188,2206.4219 L1892.7188,2209.1406 Z "/><text fill="#000000" font-family="sans-serif" font-size="12" lengthAdjust="spacingAndGlyphs" textLength="80" x="1910.25" y="2207.6543">math_grader</text><line style="stroke: #A80036; stroke-width: 1.5;" x1="1630.5" x2="2237.5" y1="2219.5" y2="2219.5"/><line style="stroke: #A80036; stroke-width: 1.5;" x1="1630.5" x2="2237.5" y1="2227.5" y2="2227.5"/><text fill="#000000" font-family="sans-serif" font-size="11" lengthAdjust="spacingAndGlyphs" textLength="222" x="1635.5" y="2241.7104">+normalize_final_answer(final_answer)</text><text fill="#000000" font-family="sans-serif" font-size="11" lengthAdjust="spacingAndGlyphs" textLength="265" x="1635.5" y="2254.5151">+grade(model_answer, gt_answer, fast=True)</text><text fill="#000000" font-family="sans-serif" font-size="11" lengthAdjust="spacingAndGlyphs" textLength="597" x="1635.5" y="2267.3198">+boxed_reward_fn(model_response, gt_answer, fast=False, correct_reward=1.0, incorrect_reward=0.0)</text><text fill="#000000" font-family="sans-serif" font-size="11" lengthAdjust="spacingAndGlyphs" textLength="422" x="1635.5" y="2280.1245">+run_with_timeout_signal(func, args=(), kwargs={}, timeout_seconds=5)</text><!--MD5=[729832cccbdf49232ae4f9ba2bacde7a]
class debug--><rect fill="#FEFECE" height="99.2188" id="debug" style="stroke: #A80036; stroke-width: 1.5;" width="551" x="1658.5" y="2038.5"/><ellipse cx="1909.75" cy="2054.5" fill="#ADD1B2" rx="11" ry="11" style="stroke: #A80036; stroke-width: 1.0;"/><path d="M1912.7188,2060.1406 Q1912.1406,2060.4375 1911.5,2060.5781 Q1910.8594,2060.7344 1910.1563,2060.7344 Q1907.6563,2060.7344 1906.3281,2059.0938 Q1905.0156,2057.4375 1905.0156,2054.3125 Q1905.0156,2051.1875 1906.3281,2049.5313 Q1907.6563,2047.875 1910.1563,2047.875 Q1910.8594,2047.875 1911.5,2048.0313 Q1912.1563,2048.1875 1912.7188,2048.4844 L1912.7188,2051.2031 Q1912.0938,2050.625 1911.5,2050.3594 Q1910.9063,2050.0781 1910.2813,2050.0781 Q1908.9375,2050.0781 1908.25,2051.1563 Q1907.5625,2052.2188 1907.5625,2054.3125 Q1907.5625,2056.4063 1908.25,2057.4844 Q1908.9375,2058.5469 1910.2813,2058.5469 Q1910.9063,2058.5469 1911.5,2058.2813 Q1912.0938,2058 1912.7188,2057.4219 L1912.7188,2060.1406 Z "/><text fill="#000000" font-family="sans-serif" font-size="12" lengthAdjust="spacingAndGlyphs" textLength="40" x="1930.25" y="2058.6543">debug</text><line style="stroke: #A80036; stroke-width: 1.5;" x1="1659.5" x2="2208.5" y1="2070.5" y2="2070.5"/><line style="stroke: #A80036; stroke-width: 1.5;" x1="1659.5" x2="2208.5" y1="2078.5" y2="2078.5"/><text fill="#000000" font-family="sans-serif" font-size="11" lengthAdjust="spacingAndGlyphs" textLength="63" x="1664.5" y="2092.7104">+ppprint(x)</text><text fill="#000000" font-family="sans-serif" font-size="11" lengthAdjust="spacingAndGlyphs" textLength="423" x="1664.5" y="2105.5151">+run_and_print_episode(env, policy, ignore_done=False, max_steps=1e9)</text><text fill="#000000" font-family="sans-serif" font-size="11" lengthAdjust="spacingAndGlyphs" textLength="539" x="1664.5" y="2118.3198">+run_and_print_episode_with_selective_step(env, policy, ignore_done=False, max_steps=1e9)</text><text fill="#000000" font-family="sans-serif" font-size="11" lengthAdjust="spacingAndGlyphs" textLength="462" x="1664.5" y="2131.1245">+run_and_print_episode_async(env, policy, ignore_done=False, max_steps=1e9)</text><!--MD5=[f39575491c47adedf7b6b18d064a4f6a]
reverse link Env to EnvWrapper--><path d="M2071.15,1889.09 C2146.67,1898.19 2242.27,1905.44 2327.5,1899 C2347.63,1897.48 2369.51,1894.53 2388.94,1891.45 " fill="none" id="Env&lt;-EnvWrapper" style="stroke: #A80036; stroke-width: 1.0;"/><polygon fill="none" points="2069.88,1895.99,2050.91,1886.55,2071.63,1882.1,2069.88,1895.99" style="stroke: #A80036; stroke-width: 1.0;"/><!--MD5=[8b450f1e907d87edeebbeefd10421906]
reverse link EnvWrapper to Env--><path d="M2375.62,1879.21 C2291.8,1877.08 2150.58,1873.48 2050.63,1870.94 " fill="none" id="EnvWrapper&lt;-Env" style="stroke: #A80036; stroke-width: 1.0;"/><polygon fill="#FFFFFF" points="2388.82,1879.55,2382.9231,1875.3995,2376.8238,1879.2465,2382.7207,1883.397,2388.82,1879.55" style="stroke: #A80036; stroke-width: 1.0;"/><text fill="#000000" font-family="sans-serif" font-size="13" lengthAdjust="spacingAndGlyphs" textLength="37" x="2289.5" y="1874.0669">wraps</text><!--MD5=[4d6d10b4d1a9a037edf39efe4ab35b60]
link Env to VectorEnv--><path d="M1817.19,1864.31 C1748.18,1862.29 1658.84,1860.01 1579.5,1859 C1183.51,1853.96 1084.36,1857.66 688.5,1869 C628.29,1870.73 561,1873.49 506.72,1875.94 " fill="none" id="Env-&gt;VectorEnv" style="stroke: #A80036; stroke-width: 1.0;"/><polygon fill="#A80036" points="493.57,1876.53,499.7441,1880.2556,505.5578,1875.9893,499.3837,1872.2637,493.57,1876.53" style="stroke: #A80036; stroke-width: 1.0;"/><text fill="#000000" font-family="sans-serif" font-size="13" lengthAdjust="spacingAndGlyphs" textLength="54" x="971" y="1853.0669">contains</text><!--MD5=[288cf31e8c784ad8c23bf30ccb90f291]
link AsyncVectorEnv to VectorEnv--><path d="M193.07,1898.52 C221.26,1896.13 255.16,1893.25 287.27,1890.53 " fill="none" id="AsyncVectorEnv-&gt;VectorEnv" style="stroke: #A80036; stroke-width: 1.0;"/><polygon fill="none" points="286.97,1883.53,307.49,1888.81,288.15,1897.48,286.97,1883.53" style="stroke: #A80036; stroke-width: 1.0;"/><!--MD5=[65110bb1c0a98aa3c11db07780228839]
reverse link VectorEnv to SyncVectorEnv--><path d="M513.75,1887.97 C638.79,1895.74 836.38,1908.02 935.71,1914.19 " fill="none" id="VectorEnv&lt;-SyncVectorEnv" style="stroke: #A80036; stroke-width: 1.0;"/><polygon fill="none" points="513.09,1894.95,493.57,1886.72,513.96,1880.97,513.09,1894.95" style="stroke: #A80036; stroke-width: 1.0;"/><!--MD5=[d6b775b344e727ba75c1c9d731303ad8]
reverse link ThreadPoolExecutor to AsyncVectorEnv--><path d="M127.5,3128.69 C127.5,2957.08 127.5,2084.94 127.5,1928.16 " fill="none" id="ThreadPoolExecutor&lt;-AsyncVectorEnv" style="stroke: #A80036; stroke-width: 1.0;"/><polygon fill="#A80036" points="127.5,3133.79,131.5,3124.79,127.5,3128.79,123.5,3124.79,127.5,3133.79" style="stroke: #A80036; stroke-width: 1.0;"/><text fill="#000000" font-family="sans-serif" font-size="13" lengthAdjust="spacingAndGlyphs" textLength="88" x="72" y="2535.5669">parallel step()</text><!--MD5=[183732211ee7d234a191a135e84998fb]
link SyncVectorEnv to Env--><path d="M1060.28,1914.72 C1212.62,1906.56 1610.65,1885.26 1812.25,1874.46 " fill="none" id="SyncVectorEnv-&gt;Env" style="stroke: #A80036; stroke-width: 1.0;"/><polygon fill="#A80036" points="1817.27,1874.2,1808.0759,1870.6689,1812.2766,1874.4575,1808.488,1878.6583,1817.27,1874.2" style="stroke: #A80036; stroke-width: 1.0;"/><text fill="#000000" font-family="sans-serif" font-size="13" lengthAdjust="spacingAndGlyphs" textLength="244" x="1334.5" y="1884.0669">iterates over envs and calls step/reset</text><!--MD5=[fd0d8231a39643ba6a748ec9e18994ad]
link ObservationWrapper to EnvWrapper--><path d="M2027.26,2812.61 C2102.8,2809.3 2206.06,2791.22 2262.5,2723 C2314.33,2660.34 2259.34,2433.91 2288.5,2358 C2298.61,2331.69 2314.82,2333.17 2327.5,2308 C2388.5,2186.89 2421.68,2030.12 2436.43,1944.22 " fill="none" id="ObservationWrapper-&gt;EnvWrapper" style="stroke: #A80036; stroke-width: 1.0;"/><polygon fill="none" points="2429.56,1942.81,2439.74,1924.22,2443.38,1945.1,2429.56,1942.81" style="stroke: #A80036; stroke-width: 1.0;"/><!--MD5=[1d4f3565033453a297201a3adfe4b828]
link EnvWrapper to EpisodeTrackingWrapper--><path d="M2425.57,1924.19 C2391.18,1998.94 2322.2,2158.04 2288.5,2300 C2275.96,2352.84 2296.8,2500.89 2262.5,2543 C2210.88,2606.37 2120.83,2631.99 2048.21,2642.11 " fill="none" id="EnvWrapper-&gt;EpisodeTrackingWrapper" style="stroke: #A80036; stroke-width: 1.0;"/><polygon fill="none" points="2048.94,2649.08,2028.23,2644.58,2047.23,2635.18,2048.94,2649.08" style="stroke: #A80036; stroke-width: 1.0;"/><!--MD5=[092bd9369da0bcb8100a4463e9eb3e3b]
link EnvWrapper to ToolEnvWrapper--><path d="M2438.2,1924.09 C2415.21,2051.04 2345.79,2434.67 2288.5,2753 C2276.9,2817.44 2307.27,2850.22 2262.5,2898 C2201.83,2962.75 2098.26,2979.23 2023.82,2981.9 " fill="none" id="EnvWrapper-&gt;ToolEnvWrapper" style="stroke: #A80036; stroke-width: 1.0;"/><polygon fill="none" points="2023.8,2988.9,2003.66,2982.31,2023.51,2974.9,2023.8,2988.9" style="stroke: #A80036; stroke-width: 1.0;"/><!--MD5=[714f4bfdf4512516c97e0aaf95f10137]
link ObservationWrapper to tokenizer module--><path d="M2027.24,2803.5 C2126.13,2796.53 2281.17,2785.61 2372.27,2779.19 " fill="none" id="ObservationWrapper-&gt;tokenizer module" style="stroke: #A80036; stroke-width: 1.0;"/><polygon fill="#A80036" points="2377.37,2778.84,2368.1168,2775.4669,2372.3818,2779.183,2368.6656,2783.448,2377.37,2778.84" style="stroke: #A80036; stroke-width: 1.0;"/><text fill="#000000" font-family="sans-serif" font-size="13" lengthAdjust="spacingAndGlyphs" textLength="30" x="2293" y="2778.0669">uses</text><!--MD5=[e6068fd374f45edc1b50ab2400f65182]
link ToolEnvWrapper to BaseTool--><path d="M2003.63,2983.63 C2115.67,2989.27 2343.94,2992.74 2529,2944 C2561.87,2935.34 2595.98,2919.71 2624.3,2904.61 " fill="none" id="ToolEnvWrapper-&gt;BaseTool" style="stroke: #A80036; stroke-width: 1.0;"/><polygon fill="#A80036" points="2628.79,2902.2,2618.9668,2902.9108,2624.3794,2904.5552,2622.7351,2909.9678,2628.79,2902.2" style="stroke: #A80036; stroke-width: 1.0;"/><text fill="#000000" font-family="sans-serif" font-size="13" lengthAdjust="spacingAndGlyphs" textLength="30" x="2432" y="2940.0669">uses</text><!--MD5=[2a70d6a8b2db1845bd0b5cb255c48854]
reverse link BaseTool to ToolEnvWrapper--><path d="M2612.3,2876.73 C2464.33,2899.07 2144.31,2947.4 2003.67,2968.63 " fill="none" id="BaseTool&lt;-ToolEnvWrapper" style="stroke: #A80036; stroke-width: 1.0;"/><polygon fill="#A80036" points="2617.49,2875.95,2607.9955,2873.332,2612.5455,2876.6931,2609.1844,2881.2432,2617.49,2875.95" style="stroke: #A80036; stroke-width: 1.0;"/><text fill="#000000" font-family="sans-serif" font-size="13" lengthAdjust="spacingAndGlyphs" textLength="30" x="2432" y="2885.0669">uses</text><!--MD5=[07e4f2556092d5362db8e5821d556747]
reverse link BaseTool to PythonCodeTool--><path d="M2749.85,2814.63 C2776.85,2792.16 2809.95,2766.06 2841.5,2745 C2854.61,2736.25 2869.43,2727.66 2883.17,2720.18 " fill="none" id="BaseTool&lt;-PythonCodeTool" style="stroke: #A80036; stroke-width: 1.0;"/><polygon fill="none" points="2754.1,2820.2,2734.3,2827.73,2745.09,2809.49,2754.1,2820.2" style="stroke: #A80036; stroke-width: 1.0;"/><!--MD5=[3a287fb40772808ac0f9088a76d83fb9]
reverse link BaseTool to SearchTool--><path d="M2784.18,2837.62 C2817.1,2827.83 2852.96,2817.18 2880.99,2808.86 " fill="none" id="BaseTool&lt;-SearchTool" style="stroke: #A80036; stroke-width: 1.0;"/><polygon fill="none" points="2785.85,2844.42,2764.68,2843.41,2781.86,2831,2785.85,2844.42" style="stroke: #A80036; stroke-width: 1.0;"/><!--MD5=[f3f9a29fd5ee284303bc23f111b93e2b]
reverse link BaseTool to MCPTool--><path d="M2784.73,2875.48 C2821.12,2879.59 2861,2884.09 2889.92,2887.36 " fill="none" id="BaseTool&lt;-MCPTool" style="stroke: #A80036; stroke-width: 1.0;"/><polygon fill="none" points="2783.77,2882.41,2764.68,2873.21,2785.34,2868.5,2783.77,2882.41" style="stroke: #A80036; stroke-width: 1.0;"/><!--MD5=[5192b6ee56be6e8a65ff14267bb8f0fd]
link PythonCodeTool to Sandbox--><path d="M2998.85,2698.68 C3045.91,2700.6 3112.18,2703.3 3177.3,2705.95 " fill="none" id="PythonCodeTool-&gt;Sandbox" style="stroke: #A80036; stroke-width: 1.0;"/><polygon fill="#A80036" points="3182.39,2706.16,3173.5576,2701.8025,3177.394,2705.9596,3173.2369,2709.796,3182.39,2706.16" style="stroke: #A80036; stroke-width: 1.0;"/><text fill="#000000" font-family="sans-serif" font-size="13" lengthAdjust="spacingAndGlyphs" textLength="82" x="3049.5" y="2697.0669">run_python()</text><!--MD5=[998e16e699c27e51e940031367290201]
link SearchTool to requests/remote search--><path d="M2983.37,2798.1 C3059.63,2804.32 3205.8,2816.22 3303,2824.14 " fill="none" id="SearchTool-&gt;requests/remote search" style="stroke: #A80036; stroke-width: 1.0;"/><polygon fill="#A80036" points="3308.17,2824.56,3299.5321,2819.8285,3303.1872,2824.146,3298.8697,2827.801,3308.17,2824.56" style="stroke: #A80036; stroke-width: 1.0;"/><text fill="#000000" font-family="sans-serif" font-size="13" lengthAdjust="spacingAndGlyphs" textLength="60" x="3060.5" y="2800.0669">_search()</text><!--MD5=[3cd24dfb49ba272dcda23d8d8d7525a5]
reverse link Sandbox to Env--><path d="M3398.02,2666.57 C3389.4,2475.84 3330.72,1787 2933,1787 C2446,1787 2446,1787 2446,1787 C2308.91,1787 2153.65,1815.79 2050.62,1839.04 " fill="none" id="Sandbox&lt;-Env" style="stroke: #A80036; stroke-width: 1.0; stroke-dasharray: 7.0,7.0;"/><polygon fill="#A80036" points="3398.25,2671.79,3401.8348,2662.6167,3398.0217,2666.7952,3393.8432,2662.9821,3398.25,2671.79" style="stroke: #A80036; stroke-width: 1.0;"/><text fill="#000000" font-family="sans-serif" font-size="13" lengthAdjust="spacingAndGlyphs" textLength="30" x="2676" y="1783.0669">uses</text><!--MD5=[60cf175d9bf3fc1c5ba18f207e4aed64]
link GuessTheNumberEnv to Env--><path d="M1080.66,1501.29 C1138.27,1508.52 1216.75,1521.2 1283.5,1542 C1485.92,1605.06 1702.45,1725.8 1827.35,1801.32 " fill="none" id="GuessTheNumberEnv-&gt;Env" style="stroke: #A80036; stroke-width: 1.0;"/><polygon fill="none" points="1831.28,1795.52,1844.73,1811.9,1824,1807.48,1831.28,1795.52" style="stroke: #A80036; stroke-width: 1.0;"/><!--MD5=[6729f3fba981ef841706e724942926e0]
link MastermindEnv to Env--><path d="M1061.72,1400.1 C1120.31,1406.18 1209.6,1418.87 1283.5,1444 C1512.95,1522.03 1740.8,1699.91 1855.89,1798.68 " fill="none" id="MastermindEnv-&gt;Env" style="stroke: #A80036; stroke-width: 1.0;"/><polygon fill="none" points="1860.49,1793.4,1871.04,1811.78,1851.33,1803.99,1860.49,1793.4" style="stroke: #A80036; stroke-width: 1.0;"/><!--MD5=[b9fd1b0d06749ca827603407da31319a]
link MinesweeperEnv to Env--><path d="M1066.18,1302.04 C1124.89,1307.96 1211.73,1320.44 1283.5,1346 C1425.8,1396.67 1459.31,1421.52 1579.5,1513 C1692.74,1599.19 1805.62,1720.21 1872.35,1796.34 " fill="none" id="MinesweeperEnv-&gt;Env" style="stroke: #A80036; stroke-width: 1.0;"/><polygon fill="none" points="1878.02,1792.19,1885.88,1811.88,1867.47,1801.39,1878.02,1792.19" style="stroke: #A80036; stroke-width: 1.0;"/><!--MD5=[b2008490d672e2727ceecd1543e4a228]
link WordleEnv to Env--><path d="M1046.72,1201.79 C1104.41,1206.37 1203.68,1218.21 1283.5,1248 C1427.53,1301.76 1463.87,1325.69 1579.5,1427 C1707.56,1539.2 1824.41,1701.89 1886.43,1795.09 " fill="none" id="WordleEnv-&gt;Env" style="stroke: #A80036; stroke-width: 1.0;"/><polygon fill="none" points="1892.37,1791.38,1897.54,1811.93,1880.69,1799.09,1892.37,1791.38" style="stroke: #A80036; stroke-width: 1.0;"/><!--MD5=[90aca57b653765d090c95824cb1a072a]
link SokobanEnv to Env--><path d="M1052.55,1104 C1110.99,1108.69 1206.51,1120.51 1283.5,1150 C1428.59,1205.58 1468.25,1227.54 1579.5,1336 C1723.24,1476.13 1840.46,1684.1 1896.79,1793.9 " fill="none" id="SokobanEnv-&gt;Env" style="stroke: #A80036; stroke-width: 1.0;"/><polygon fill="none" points="1903.13,1790.93,1905.95,1811.93,1890.65,1797.27,1903.13,1790.93" style="stroke: #A80036; stroke-width: 1.0;"/><!--MD5=[18cf11c2459e3cb5bc3c9dda9915e34b]
link HangmanEnv to Env--><path d="M1055.01,1006.09 C1113.68,1010.81 1207.67,1022.64 1283.5,1052 C1429.06,1108.36 1472.2,1127.64 1579.5,1241 C1740.3,1410.88 1854.95,1667.56 1904.96,1793.27 " fill="none" id="HangmanEnv-&gt;Env" style="stroke: #A80036; stroke-width: 1.0;"/><polygon fill="none" points="1911.49,1790.75,1912.29,1811.93,1898.46,1795.87,1911.49,1790.75" style="stroke: #A80036; stroke-width: 1.0;"/><!--MD5=[a6cbc9a7afc1faa010635e0c705009b2]
link Game2048Env to Env--><path d="M1059.16,908.35 C1118.06,913.23 1209.49,925.14 1283.5,954 C1429.37,1010.88 1475.53,1027.94 1579.5,1145 C1757.48,1345.38 1867.21,1651.39 1911.04,1792.23 " fill="none" id="Game2048Env-&gt;Env" style="stroke: #A80036; stroke-width: 1.0;"/><polygon fill="none" points="1917.87,1790.61,1917.03,1811.78,1904.48,1794.71,1917.87,1790.61" style="stroke: #A80036; stroke-width: 1.0;"/><!--MD5=[2c26fb2d7d3b5c96a220ea09c0d458d8]
link TowerofHanoiEnv to Env--><path d="M1067.75,811.05 C1126.7,816.33 1213.02,828.42 1283.5,856 C1429.53,913.14 1478.34,928.19 1579.5,1048 C1775.6,1280.25 1878.68,1637.76 1916.19,1792.41 " fill="none" id="TowerofHanoiEnv-&gt;Env" style="stroke: #A80036; stroke-width: 1.0;"/><polygon fill="none" points="1923.03,1790.91,1920.85,1811.99,1909.41,1794.15,1923.03,1790.91" style="stroke: #A80036; stroke-width: 1.0;"/><!--MD5=[191b78ad8cee623f0bf77ad8238c939f]
link FifteenPuzzleEnv to Env--><path d="M1065.05,1697.62 C1173.11,1712.14 1394.21,1743.59 1579.5,1781 C1652.08,1795.66 1732.27,1815.12 1797.9,1831.92 " fill="none" id="FifteenPuzzleEnv-&gt;Env" style="stroke: #A80036; stroke-width: 1.0;"/><polygon fill="none" points="1799.71,1825.16,1817.33,1836.92,1796.21,1838.71,1799.71,1825.16" style="stroke: #A80036; stroke-width: 1.0;"/><!--MD5=[a6f0edec8c8e2904f0d797c7b86cfad0]
link CrosswordsEnv to Env--><path d="M1061.24,1598.67 C1119.3,1606.54 1208.07,1620.41 1283.5,1640 C1465.41,1687.24 1668.93,1762.48 1798.86,1813.5 " fill="none" id="CrosswordsEnv-&gt;Env" style="stroke: #A80036; stroke-width: 1.0;"/><polygon fill="none" points="1801.45,1806.99,1817.49,1820.84,1796.31,1820.02,1801.45,1806.99" style="stroke: #A80036; stroke-width: 1.0;"/><!--MD5=[2126e4b729cb6548d20352e20ad257f9]
link MultiAgentEnv to AgentSelector--><path d="M1105.69,201 C1300.89,201 1710.02,201 1868.43,201 " fill="none" id="MultiAgentEnv-&gt;AgentSelector" style="stroke: #A80036; stroke-width: 1.0; stroke-dasharray: 7.0,7.0;"/><polygon fill="#A80036" points="1873.5,201,1864.5,197,1868.5,201,1864.5,205,1873.5,201" style="stroke: #A80036; stroke-width: 1.0;"/><text fill="#000000" font-family="sans-serif" font-size="13" lengthAdjust="spacingAndGlyphs" textLength="30" x="1441.5" y="197.0669">uses</text><!--MD5=[ecd0492c0dc683cb91164e13f083eadc]
link MultiAgentEnv to Env--><path d="M1105.66,194.84 C1166.64,197.46 1239.51,212.14 1283.5,261 C1428.19,421.72 1188.85,584.24 1333.5,745 C1408.25,828.07 1496.24,722.47 1579.5,797 C1879.85,1065.87 1925.74,1594.94 1932.19,1791.82 " fill="none" id="MultiAgentEnv-&gt;Env" style="stroke: #A80036; stroke-width: 1.0;"/><polygon fill="none" points="1939.2,1791.8,1932.75,1811.99,1925.2,1792.19,1939.2,1791.8" style="stroke: #A80036; stroke-width: 1.0;"/><!--MD5=[9b6d75424b8a9eb659a7fc6a62910318]
link QaEnv to Env--><path d="M1033.84,690.25 C1088.61,700.82 1197.5,724.89 1283.5,763 C1354.63,794.52 1530.13,889.87 1579.5,950 C1795.77,1213.39 1889.67,1623.95 1920.56,1792.2 " fill="none" id="QaEnv-&gt;Env" style="stroke: #A80036; stroke-width: 1.0;"/><polygon fill="none" points="1927.47,1791.04,1924.1,1811.96,1913.69,1793.51,1927.47,1791.04" style="stroke: #A80036; stroke-width: 1.0;"/><!--MD5=[cf0ba45d32f8d7f48aef71e6dab3bb5a]
link MathEnv to Env--><path d="M1934,610.24 C1934,1004.07 1934,1397.9 1934,1791.73 " fill="none" id="MathEnv-&gt;Env" style="stroke: #A80036; stroke-width: 1.0;"/><polygon fill="none" points="1941,1791.98,1934,1811.98,1927,1791.98,1941,1791.98" style="stroke: #A80036; stroke-width: 1.0;"/><!--MD5=[4d42ef08a70cbba07c8334f0602b1e2b]
link CodeEnv to Env--><path d="M1041.11,581.29 C1101.66,576.91 1213.7,578.04 1283.5,635 C1330.82,673.62 1290.15,719.97 1333.5,763 C1416.57,845.46 1497.93,773.06 1579.5,857 C1843.09,1128.24 1910.98,1606.73 1927.75,1791.88 " fill="none" id="CodeEnv-&gt;Env" style="stroke: #A80036; stroke-width: 1.0;"/><polygon fill="none" points="1934.73,1791.42,1929.47,1811.95,1920.78,1792.62,1934.73,1791.42" style="stroke: #A80036; stroke-width: 1.0;"/><!--MD5=[4fe2ea74965320b2da617b33d0d93fbf]
link MathVisualEnv to MathEnv--><path d="M1059.03,496.65 C1125.91,506.11 1237.3,521.34 1333.5,532 C1529.47,553.71 1762.21,572.75 1871.08,581.26 " fill="none" id="MathVisualEnv-&gt;MathEnv" style="stroke: #A80036; stroke-width: 1.0;"/><polygon fill="none" points="1871.75,574.29,1891.15,582.82,1870.67,588.25,1871.75,574.29" style="stroke: #A80036; stroke-width: 1.0;"/><!--MD5=[37113b326655ef191f98a524cf610290]
link registration to EnvSpec--><path d="M1283.67,360 C1499.7,360 1777.49,360 1886.33,360 " fill="none" id="registration-&gt;EnvSpec" style="stroke: #A80036; stroke-width: 1.0;"/><polygon fill="#A80036" points="1891.38,360,1882.38,356,1886.38,360,1882.38,364,1891.38,360" style="stroke: #A80036; stroke-width: 1.0;"/><text fill="#000000" font-family="sans-serif" font-size="13" lengthAdjust="spacingAndGlyphs" textLength="46" x="1433.5" y="356.0669">defines</text><!--MD5=[25901c99250fd3fac3b430075c00b083]
reverse link VectorEnv to registration--><path d="M406.21,1806.94 C424.56,1541.99 499.71,646.22 688.5,444 C699.77,431.93 712.59,421.53 726.44,412.57 " fill="none" id="VectorEnv&lt;-registration" style="stroke: #A80036; stroke-width: 1.0; stroke-dasharray: 7.0,7.0;"/><polygon fill="#A80036" points="405.87,1811.94,410.478,1803.2356,406.213,1806.9518,402.4969,1802.6868,405.87,1811.94" style="stroke: #A80036; stroke-width: 1.0;"/><text fill="#000000" font-family="sans-serif" font-size="13" lengthAdjust="spacingAndGlyphs" textLength="117" x="544.5" y="493.0669">make_vec creates</text><!--MD5=[013e1b821d0b6daa46f6e8a49df0d391]
link wrapper_factory to ObservationWrapper--><path d="M1077,2522.64 C1195.49,2568.71 1428.34,2657.41 1629.5,2723 C1697.93,2745.31 1776.01,2767.62 1835.84,2784.07 " fill="none" id="wrapper_factory-&gt;ObservationWrapper" style="stroke: #A80036; stroke-width: 1.0;"/><polygon fill="#A80036" points="1840.84,2785.44,1833.2284,2779.1899,1836.0202,2784.1099,1831.1002,2786.9017,1840.84,2785.44" style="stroke: #A80036; stroke-width: 1.0;"/><text fill="#000000" font-family="sans-serif" font-size="13" lengthAdjust="spacingAndGlyphs" textLength="67" x="1423" y="2615.0669">constructs</text><!--MD5=[06a04bb5a56134a6c89f9ab348c17eec]
link wrapper_factory to ToolEnvWrapper--><path d="M1035.3,2522.59 C1127.82,2598.85 1382.58,2798.41 1629.5,2898 C1705.38,2928.61 1796.56,2951.16 1859.05,2964.59 " fill="none" id="wrapper_factory-&gt;ToolEnvWrapper" style="stroke: #A80036; stroke-width: 1.0;"/><polygon fill="#A80036" points="1864.25,2965.7,1856.2995,2959.8871,1859.3631,2964.6426,1854.6076,2967.7062,1864.25,2965.7" style="stroke: #A80036; stroke-width: 1.0;"/><text fill="#000000" font-family="sans-serif" font-size="13" lengthAdjust="spacingAndGlyphs" textLength="67" x="1423" y="2740.0669">constructs</text><!--MD5=[7091a5c6b120ab32e5237b8b0bf3d18c]
link seeding to constants--><!--MD5=[735ec1fed9014ae0553b92e6c5fe11c4]
link constants to parsing--><!--MD5=[89a190c883b019a7de181410a8231eb2]
link seeding to qa_em--><!--MD5=[a39dcd36ca3a6f92b5868ec674583f99]
link qa_em to math_grader--><!--MD5=[1ae1f73bdd431c89d65f7b0b1e22ca22]
link math_grader to debug--><!--MD5=[fbf18976417563f64918fe8f7a8894d6]
@startuml gem-class-diagram

top to bottom direction
skinparam ranksep 100
skinparam nodesep 50
skinparam classAttributeIconSize 0
skinparam shadowing false


package "concurrent.futures" {
  class ThreadPoolExecutor
}

package "gem" {

  package "core" {
    abstract class Env {
      + step(action)
      + reset(seed=None)
      + sample_random_action()
      + spawn(same_state=False, **kwargs)
      + unwrapped : Env
    }

    class EnvWrapper {
      - env: Env
      + EnvWrapper(env)
      + unwrapped : Env
    }
    Env <|- - EnvWrapper
    EnvWrapper o- - Env : wraps
  }

  package "vector" {
    class VectorEnv {
      - env_ids
      - env_fns
      - envs : List[Env]
      - num_envs
      - autoreset_mode
      + reset(seed=None, **kwargs)
      + step(...)
    }

    class SyncVectorEnv
    class AsyncVectorEnv

    Env - - - -* VectorEnv  : contains
    AsyncVectorEnv - -|> VectorEnv
    VectorEnv <|- - SyncVectorEnv
    ThreadPoolExecutor <- AsyncVectorEnv : parallel step()
    SyncVectorEnv - - - -> Env : iterates over envs and calls step/reset

  }

  package "wrappers" {
    class ObservationWrapper {
      - obs_queue
      - act_queue
      - tokenizer
      + reset(seed=None, **kwargs)
      + step(action)
      + observation(info)
    }
    class EpisodeTrackingWrapper {
      - step_counter
      - cumulative_rewards
      + step(action)
      + reset(seed=None)
    }
    class ToolEnvWrapper {
      - tools: List[BaseTool]
      - tool_use_counter
      - tool_success_counter
      + reset(...)
      + step(action)
    }

    ObservationWrapper - -|> EnvWrapper
    EnvWrapper - -|> EpisodeTrackingWrapper
    EnvWrapper - -|> ToolEnvWrapper
    ObservationWrapper - -> "tokenizer module" : uses
    ToolEnvWrapper - - -> BaseTool : uses
  }


  package "tools" {
    class BaseTool  {
      + instruction_string()
      + execute_action(action)
    } 
    class PythonCodeTool 
    class Sandbox
    class SearchTool
    class MCPTool

    BaseTool <|- - PythonCodeTool
    BaseTool <|- - SearchTool
    BaseTool <|- - MCPTool
    PythonCodeTool - -> Sandbox : run_python()
    SearchTool - -> "requests/remote search" : _search()
    BaseTool <- - ToolEnvWrapper : uses

    Sandbox <.. Env : uses
  }


  package "envs" {
    
    package "game_env" {
      left to right direction
      
      class GuessTheNumberEnv
      class MastermindEnv
      class MinesweeperEnv
      class WordleEnv
      class SokobanEnv
      class HangmanEnv
      class Game2048Env
      class TowerofHanoiEnv
      class FifteenPuzzleEnv
      class CrosswordsEnv

      GuessTheNumberEnv - -|> Env
      MastermindEnv - -|> Env
      MinesweeperEnv - -|> Env
      WordleEnv - -|> Env
      SokobanEnv - -|> Env
      HangmanEnv - -|> Env
      Game2048Env - -|> Env
      TowerofHanoiEnv - -|> Env
      FifteenPuzzleEnv - -|> Env
      CrosswordsEnv - -|> Env
    }


    package "multiagent" {
      class MultiAgentEnv {
        - agents
        - possible_agents
        - rewards, terminations, truncations
        + step(actions)
        + reset(seed=None)
      }
      class AgentSelector

      MultiAgentEnv ..> AgentSelector : uses
      MultiAgentEnv - -|> Env
    }

    package "single" {
      
      class QaEnv
      class MathEnv
      class CodeEnv
      class MathVisualEnv

      QaEnv - -|> Env
      MathEnv - -|> Env
      CodeEnv - -|> Env
      MathVisualEnv - -|> MathEnv

    }

    class EnvSpec
    class registration <<module>> {
      + register(env_id, entry_point, **kwargs)
      + make(env_id, **kwargs)
      + make_vec(env_ids, wrappers=None, vec_kwargs=None, async_mode=False, seed=0, **kwargs)
      + print_envs()
    }
    registration - -> EnvSpec : defines
    VectorEnv <.. registration  : make_vec creates

  }


  package "utils" {

    left to right direction
    
    
    class "wrapper_factory" as wrapper_factory {
      + get_wrapper_fns(wrappers, tokenizer=None)
    }

    class "seeding" as seeding {
      + set_seed(seed)
      + np_random(seed)
    }
    class "Sandbox" as Sandbox {
      + run_python(code, Sandbox_type, stdin=None, timeout=...)
      + check_forbidden_imports(code)
      + subprocess_run(code, cmd_list, Sandbox_type, stdin=None, timeout=...)
    }
    class "constants" as constants {
      + TERMINAL_STATE
      + LanguageGameReward
    }
    class "parsing" as parsing {
      + last_boxed_only_string(string)
      + remove_boxed(s)
      + extract_last_boxed_answer(solution)
      + extract_code_from_model(model_response)
      + extract_last_tagged_answer(model_response)
    }
    class "qa_em" as qa_em {
      + normalize_answer(s)
      + em_check(prediction, golden_answers)
    }
    class "math_grader" as math_grader {
      + normalize_final_answer(final_answer)
      + grade(model_answer, gt_answer, fast=True)
      + boxed_reward_fn(model_response, gt_answer, fast=False, correct_reward=1.0, incorrect_reward=0.0)
      + run_with_timeout_signal(func, args=(), kwargs={}, timeout_seconds=5)
    }
    class "debug" as debug {
      + ppprint(x)
      + run_and_print_episode(env, policy, ignore_done=False, max_steps=1e9)
      + run_and_print_episode_with_selective_step(env, policy, ignore_done=False, max_steps=1e9)
      + run_and_print_episode_async(env, policy, ignore_done=False, max_steps=1e9)
    }
    class "parsing" as parsing {
      + extract_last_boxed_answer(s)
      + extract_code_from_model(s)
    }
    class "qa_em" as qa_em


    wrapper_factory -down-> ObservationWrapper : constructs
    wrapper_factory -down-> ToolEnvWrapper : constructs

  }

}
@enduml

PlantUML version 1.2020.02(Sun Mar 01 10:22:07 UTC 2020)
(GPL source distribution)
Java Runtime: OpenJDK Runtime Environment
JVM: OpenJDK 64-Bit Server VM
Java Version: 17.0.16+8
Operating System: Linux
Default Encoding: UTF-8
Language: en
Country: null
--></g></svg>